<?xml version="1.0" encoding="UTF-8"?>
<svg id="Layer_1" data-name="Layer 1" xmlns="http://www.w3.org/2000/svg" version="1.1" viewBox="0 0 100 100">
  <defs>
    <style>
      .cls-1 {
        fill: none;
        stroke: #ed1c24;
        stroke-miterlimit: 10;
      }

      .cls-2 {
        fill: lime;
      }

      .cls-2, .cls-3 {
        stroke-width: 0px;
      }

      .cls-3 {
        fill: #ed1c24;
      }
    </style>
  </defs>
  <path class="cls-1" d="M73.68,38.92c-.85-1.01-1.88-2.1-3.12-3.19-2.1-1.84-4.17-3.11-5.88-3.98"/>
  <path class="cls-1" d="M22.61,44.53h0s.06-.09.1-.16c.98-1.54,4.25-6.49,13.03-13.61,5.15-4.19,9.46-6.9,11.64-8.21,3.06-1.84,5.54-3.11,7.51-4.11,3.19-1.62,6.77-3.43,11.69-5.24,2.97-1.09,5.84-1.97,8.22-2.69,1.88-.57,3.46-1.03,4.61-1.35-2.14,1.3-5.3,3.62-7.94,7.44-2.25,3.26-3.17,6.21-3.4,7.02-.62,2.13-.8,3.89-.92,5.1-.14,1.46-.31,3.29,0,5.67.08.59.29,2.04.85,3.83.27.85.58,1.81,1.2,2.98.62,1.15,1.28,2.02,1.79,2.61-1.23,2.85-2.65,5.02-3.77,6.53-1.96,2.63-3.85,4.3-5.24,5.53-1.33,1.17-2.93,2.56-5.31,3.97-2.53,1.49-4.94,2.4-6.94,2.98-4.55-1.48-8.25-3.05-10.98-4.32-4.19-1.95-6.66-3.48-8.5-4.75-2.89-1.99-4.44-3.52-5.67-5.1-.96-1.23-1.62-2.36-2.06-3.19"/>
  <path class="cls-1" d="M48.9,62.71c.04,1.97.23,3.62.43,4.89.26,1.64.56,2.83.64,3.12.18.7.57,2.16,1.28,3.83.75,1.77,1.51,2.95,2.55,4.54,2.08,3.19,3.9,5.19,4.61,5.95,1.66,1.78,2.56,2.67,3.97,3.19.91.33,1.72.43,2.29.45,2.62-1.35,7.53-4.32,11.6-10.02,1.74-2.43,4.94-7.6,5.81-14.88.25-2.05.82-7.24-1.2-13.25-.35-1.02-1.42-4.01-3.71-7.37-1.32-1.94-2.67-3.44-3.76-4.54-.51,1.25-1.25,2.92-2.24,4.84-1.05,2.01-2.15,4.13-3.97,6.5-2.06,2.68-3.99,4.31-6.02,6.02-2.14,1.8-3.91,3.3-6.66,4.68-2.23,1.12-4.21,1.72-5.6,2.06Z"/>
  <path class="cls-3" d="M50.65,72.56c-.5-1.47-.99-3.25-1.31-5.29-.26-1.63-.36-3.13-.38-4.44,1.49-.38,3.58-1.03,5.91-2.22,3.01-1.54,4.97-3.22,6.66-4.68,3.17-2.73,5.12-5.21,5.62-5.86,1.58-2.04,2.51-3.68,3.64-5.67,1.01-1.78,1.67-3.15,2.22-4.72.19-.54.33-1,.43-1.32,1.3,1.67,2.61,3.33,3.91,5-.95,2.26-2.36,5.2-4.44,8.42-.35.54-1.74,2.67-3.87,5.29-1.25,1.53-3.6,4.27-6.99,7.28-2.39,2.12-4.36,3.55-5.53,4.39-2.2,1.58-4.2,2.85-5.86,3.83Z"/>
  <path class="cls-2" d="M54.01,68.92"/>
  <path class="cls-3" d="M56.89,83.09c-.73-.83-1.48-1.75-2.22-2.79-.43-.6-.82-1.18-1.18-1.75,1.76-.92,4.1-2.28,6.66-4.2,2.33-1.75,3.88-3.23,5.53-4.82,1.8-1.73,4.27-4.12,7.04-7.7,1.92-2.48,3.33-4.7,4.3-6.33,1.34-2.27,2.4-4.37,3.21-6.19.33.65.67,1.44.94,2.36.4,1.32.56,2.5.61,3.45-.64,2.03-1.6,4.62-3.07,7.46-.52,1.01-2.17,4.13-5.01,7.75-2.59,3.31-4.95,5.49-6.28,6.71-2.2,2.01-4.16,3.5-5.53,4.54-1.58,1.2-2.96,2.17-4.02,2.88"/>
  <path class="cls-3" d="M64.11,88.94c-.67-.36-1.35-.72-2.02-1.07,1.24-.63,2.85-1.55,4.63-2.83,2.79-2.01,4.6-3.91,5.72-5.1,2.57-2.73,4.16-5.12,4.68-5.91,1.48-2.27,2.41-4.2,3.02-5.48.72-1.51,1.26-2.82,1.65-3.83-.11.96-.34,2.39-.85,4.06-.56,1.85-1.22,3.17-2.22,5.15-.94,1.87-1.46,2.89-2.36,4.25-.3.44-1.73,2.57-4.16,4.96-2.07,2.04-3.9,3.31-4.54,3.73-1.34.91-2.57,1.58-3.55,2.07Z"/>
  <path class="cls-3" d="M40.2,59.89c.14,6.02,1.53,10.68,2.65,13.61,1.03,2.68,2.29,5.9,5.2,9.26,3.7,4.27,7.71,6.08,8.5,6.43,1.17.51,2.19.84,2.93,1.04-.91.4-2.05.82-3.4,1.13-1.37.32-2.59.44-3.59.47-3.59-1.89-8.82-5.33-13.23-11.24-4.99-6.71-6.52-13.38-7.37-17.29-.8-3.67-1.06-6.81-1.13-9.07,1.59,1.21,3.44,2.47,5.57,3.69,1.34.76,2.64,1.42,3.87,1.98Z"/>
  <path class="cls-3" d="M42.56,90.79c-3.3-1.85-7.67-4.89-11.62-9.73-.56-.69-6.43-8.05-8.41-18.43-1.11-5.79-.44-9.56-.19-10.77.33-1.63.78-2.95,1.13-3.87-.47-.82-.94-1.64-1.42-2.46-.81,1.63-1.72,3.76-2.46,6.33-.31,1.07-.77,2.72-1.04,4.91-.12.94-.39,3.59,0,6.99.58,4.98,2.26,8.72,3.21,10.58,2.29,4.47,5.07,7.21,6.71,8.79,2.44,2.36,4.51,3.7,6.24,4.82,1.96,1.27,3.32,1.93,4.91,2.36,1.18.32,2.2.43,2.93.47Z"/>
  <path class="cls-3" d="M70.85,43.55c-.68-.92-1.59-2.32-2.36-4.16-1.68-4.03-1.59-7.57-1.51-9.54.14-3.65,1.02-6.33,1.32-7.18,1.02-2.89,2.36-4.88,3.02-5.86,1.09-1.6,2.11-2.71,2.83-3.5,1.52-1.65,2.62-2.53,3.02-2.83.42-.32.78-.58,1.04-.76-1.24.43-3.12,1.26-5.01,2.83-1.76,1.47-2.74,2.93-3.69,4.35-.47.7-1.72,2.64-2.93,5.67-1.24,3.11-1.71,5.54-2.27,8.5-.37,1.99-1.04,6.01-1.04,10.87,0,.93,0,2.83.57,5.2.46,1.91,1,4.17,1.98,4.35.89.16,2.38-1.34,5.01-7.94Z"/>
  <path class="cls-3" d="M57.57,58.43c-2.03-5.71-2.26-10.55-2.17-13.51.16-5.56,1.57-9.7,2.74-13.13.77-2.26,1.74-5.07,3.78-8.41,1.95-3.21,3.94-5.36,5.2-6.71,1.43-1.54,2.55-2.72,4.35-3.97,2.11-1.47,4.1-2.28,5.48-2.74-2.57.92-5.72,2.32-9.07,4.44-4.36,2.77-7.22,5.67-8.98,7.46-1.57,1.61-3.82,3.93-6.14,7.46-2.22,3.38-3.4,6.17-4.54,8.88-1.88,4.46-2.87,8.14-3.31,9.92-.62,2.49-.98,4.6-1.23,6.05-.41,2.35-.67,4.38-.85,5.95,2.05.79,4.09,1.57,6.14,2.36,1.64-.44,3.28-.88,4.91-1.32,1.23-.91,2.46-1.83,3.69-2.74Z"/>
  <path class="cls-1" d="M48.87,63.12c-5.36-1.71-9.63-3.7-12.74-5.33,0,0-5.73-3.02-10.38-7.24-1.28-1.16-2.21-2.48-2.21-2.48-.28-.39-.48-.73-.53-.81-.43-.72-.72-1.37-.91-1.86-.41.71-.96,1.71-1.49,2.95-1.27,2.97-1.66,5.43-1.92,7.05-.64,3.95-.4,7.03-.34,7.81.17,2.03.68,5.57,2.45,9.62.56,1.28,2.14,4.66,5.29,8.24,2.95,3.36,5.89,5.31,7.16,6.1,4.09,2.54,7.74,3.51,8.99,3.81,2.79.67,4.97.77,7.06.86,2.31.1,4.47.18,7.21-.38,1.51-.31,3.51-1.07,4.66-1.48,1.04-.37,1.9-.69,2.49-.92-2.66-1.41-4.53-3.01-5.71-4.18-2.4-2.39-3.68-4.68-4.76-6.62-.87-1.57-1.94-3.52-2.74-6.29-.6-2.07-.91-4.15-1.25-6.38-.16-1.03-.26-1.88-.34-2.48Z"/>
  <path class="cls-3" d="M35.65,56.64c1-4.63,2.72-10.23,5.76-16.16,2.74-5.34,5.66-9.23,7.46-11.43,3.2-3.92,6.21-6.67,8.03-8.22,1.78-1.52,4.7-3.98,9.07-6.43,2.67-1.49,5.07-2.52,6.9-3.21-3.48,1.31-7.91,3.19-12.85,5.86-3.21,1.74-7.92,4.31-13.32,8.6-5.58,4.43-9,8.4-12.76,12.76-2.75,3.18-4.8,5.93-6.71,9.26-.58,1.01-1.03,1.87-1.32,2.46,1.06,1.15,2.55,2.55,4.54,3.87,1.93,1.29,3.75,2.11,5.2,2.65Z"/>
  <line class="cls-1" x1="22.76" y1="44.28" x2="22.14" y2="45.36"/>
  <line class="cls-1" x1="22.28" y1="44.87" x2="22.55" y2="45.59"/>
</svg>