<?xml version="1.0" encoding="UTF-8"?>
<svg xmlns="http://www.w3.org/2000/svg" version="1.1" viewBox="0 0 100 100">
  <defs>
    <style>
      .cls-1 {
        fill: #000;
      }

      .cls-1, .cls-2 {
        stroke-width: 0px;
      }

      .cls-2, .cls-3 {
        fill: #db5ae2;
      }

      .cls-4 {
        fill: #39b54a;
      }

      .cls-4, .cls-5, .cls-6, .cls-7, .cls-3, .cls-8, .cls-9 {
        stroke: #000;
        stroke-miterlimit: 10;
      }

      .cls-5 {
        fill: #ed1e79;
      }

      .cls-6 {
        fill: #0071bc;
      }

      .cls-7 {
        fill: #fcee21;
      }

      .cls-8 {
        fill: #c1272d;
      }

      .cls-10 {
        display: none;
      }

      .cls-9 {
        fill: #f15a24;
      }
    </style>
  </defs>
  <g id="ball">
    <g>
      <path class="cls-2" d="M50.88,95.56c-19.69,0-35.71-16.02-35.71-35.71S31.19,24.14,50.88,24.14s35.71,16.02,35.71,35.71-16.02,35.71-35.71,35.71Z"/>
      <path class="cls-1" d="M50.88,24.64c19.42,0,35.21,15.8,35.21,35.21s-15.8,35.21-35.21,35.21S15.67,79.27,15.67,59.85,31.46,24.64,50.88,24.64M50.88,23.64c-20,0-36.21,16.21-36.21,36.21s16.21,36.21,36.21,36.21,36.21-16.21,36.21-36.21-16.21-36.21-36.21-36.21h0Z"/>
    </g>
  </g>
  <g id="fin" class="cls-10">
    <path class="cls-3" d="M50.15,23.92c1.25-2.65,2.8-4.45,4.25-5.71,7.74-6.72,21.78-5.74,35.59,1.73-4.42.36-7.79,1.47-9.97,2.37-3.7,1.53-4.64,2.74-4.96,3.35,0,0-.05.1-.09.2-1.06,2.43,2.25,8.35,4.39,11.8,0,0,0,0,0,0,0,0-.01-.02-.01-.02-2.25-3.49-7.71-7.14-7.71-7.14-.56-.38-2.04-1.36-3.61-2.2-6.64-3.53-14.57-4.22-17.86-4.39Z"/>
  </g>
  <g id="fin_2" data-name="fin 2">
    <path class="cls-5" d="M47.03,24.32c-.72-2.38,6.03-7,12.12-9.05,1.22-.41,7.58-2.51,15.78-.85,6.04,1.22,10.35,3.91,12.69,5.62-1.16-.15-7.17-.81-10.87,2.93-.61.62-1.82,1.84-2.08,3.69-.19,1.34.22,2.35,1.49,5.15,1.01,2.22,1.94,4.2,2.76,5.91-2.19-2.9-5.65-6.61-10.8-9.12-10.44-5.08-20.26-1.53-21.09-4.28Z"/>
  </g>
  <g id="panel_1" data-name="panel 1">
    <path class="cls-9" d="M36.09,91.67c-.04-6.73.77-21.43,9.64-36.99,7.85-13.77,18.23-21.6,23.81-25.23-2.63-1.54-6.51-3.39-11.48-4.39-2.97-.6-5.64-.76-7.84-.73-4.88,3.22-13.27,9.68-19.8,20.72-8.64,14.61-8.99,28.72-8.79,34.72,1.42,1.95,3.49,4.41,6.38,6.8,2.97,2.46,5.85,4.07,8.08,5.1Z"/>
  </g>
  <g id="panel_2" data-name="panel 2">
    <path class="cls-8" d="M21.75,79.91c-.16-5.78.26-18.41,7.51-32.03,6.99-13.13,16.74-20.44,21.57-23.6-1.99-.03-4.76.11-7.94.85-9.31,2.17-20.57,9.17-25.39,22.04-6.41,17.09,3.4,31.54,4.25,32.74Z"/>
  </g>
  <g id="panel_3" data-name="panel 3">
    <path class="cls-7" d="M37.89,75.82c1.43,1.83,3.16,3.73,5.24,5.57,8.26,7.32,17.56,9.76,23.1,10.68-2.77,1.33-8.17,3.48-15.28,3.43-6.81-.05-12-2.09-14.74-3.4-.04-2.62.07-5.57.43-8.79.31-2.74.75-5.24,1.25-7.49Z"/>
  </g>
  <g id="panel_4" data-name="panel 4">
    <path class="cls-4" d="M44.41,57.39c2.57,2.74,5.61,5.6,9.17,8.41,9.59,7.56,19.22,11.71,26.55,14.08-1.19,1.94-3.1,4.6-6.05,7.18-2.91,2.55-5.77,4.09-7.84,5.01-3.52-.43-9.53-1.62-15.97-5.39-6.26-3.66-10.18-8.15-12.28-10.96.59-2.99,1.47-6.41,2.81-10.11,1.13-3.12,2.38-5.86,3.61-8.22Z"/>
  </g>
  <g id="panel_5" data-name="panel 5">
    <path class="cls-6" d="M56.22,40.6c2.57,2.72,5.67,5.63,9.35,8.48,7.6,5.88,15.07,9.48,20.98,11.72-.05,2.56-.4,6.23-1.8,10.39-1.29,3.83-3.03,6.78-4.44,8.79-4.98-1.54-11.21-3.98-17.86-7.94-8.14-4.84-14.09-10.27-18.12-14.57,1.48-2.88,3.38-6.12,5.81-9.5,2.06-2.85,4.13-5.3,6.07-7.37Z"/>
  </g>
</svg>