<?xml version="1.0" encoding="UTF-8"?>
<svg xmlns="http://www.w3.org/2000/svg" version="1.1" viewBox="0 0 640 960">
  <defs>
    <style>
      .cls-1, .cls-2, .cls-3 {
        fill: none;
      }

      .cls-1, .cls-4, .cls-3 {
        stroke-miterlimit: 10;
      }

      .cls-1, .cls-3 {
        stroke: #efd5bf;
      }

      .cls-2, .cls-5 {
        stroke-width: 0px;
      }

      .cls-4 {
        fill: #f2cca7;
        stroke: #000;
      }

      .cls-3 {
        stroke-width: 8px;
      }

      .cls-5 {
        fill: #efd5bf;
      }
    </style>
  </defs>
  <g id="Layer_1" data-name="Layer 1">
    <rect class="cls-4" x="-96.01" y="-90.13" width="894.61" height="1343.62"/>
  </g>
  <g id="sand">
    <path class="cls-5" d="M45.16,47.43c1.93,0,1.93-3,0-3s-1.93,3,0,3h0Z"/>
    <path class="cls-5" d="M53.66,35.53c1.93,0,1.93-3,0-3s-1.93,3,0,3h0Z"/>
    <path class="cls-5" d="M33.25,32.13c1.93,0,1.93-3,0-3s-1.93,3,0,3h0Z"/>
    <path class="cls-5" d="M21.35,57.64c1.93,0,1.93-3,0-3s-1.93,3,0,3h0Z"/>
    <path class="cls-5" d="M50.26,84.85c1.93,0,1.93-3,0-3s-1.93,3,0,3h0Z"/>
    <path class="cls-5" d="M94.48,67.84c1.93,0,1.93-3,0-3s-1.93,3,0,3h0Z"/>
    <path class="cls-5" d="M94.48,40.63c1.93,0,1.93-3,0-3s-1.93,3,0,3h0Z"/>
    <path class="cls-5" d="M91.08,20.22c1.93,0,1.93-3,0-3s-1.93,3,0,3h0Z"/>
    <path class="cls-5" d="M130.2,20.22c1.93,0,1.93-3,0-3s-1.93,3,0,3h0Z"/>
    <path class="cls-5" d="M119.99,45.73c1.93,0,1.93-3,0-3s-1.93,3,0,3h0Z"/>
    <path class="cls-5" d="M113.19,37.23c1.93,0,1.93-3,0-3s-1.93,3,0,3h0Z"/>
    <path class="cls-5" d="M102.99,23.62c1.93,0,1.93-3,0-3s-1.93,3,0,3h0Z"/>
    <path class="cls-5" d="M36.66,16.82c1.93,0,1.93-3,0-3s-1.93,3,0,3h0Z"/>
    <path class="cls-5" d="M7.74,21.92c1.93,0,1.93-3,0-3s-1.93,3,0,3h0Z"/>
    <path class="cls-5" d="M7.74,52.54c1.93,0,1.93-3,0-3s-1.93,3,0,3h0Z"/>
    <path class="cls-5" d="M23.05,89.95c1.93,0,1.93-3,0-3s-1.93,3,0,3h0Z"/>
    <path class="cls-5" d="M14.55,134.18c1.93,0,1.93-3,0-3s-1.93,3,0,3h0Z"/>
    <path class="cls-5" d="M65.57,130.77c1.93,0,1.93-3,0-3s-1.93,3,0,3h0Z"/>
    <path class="cls-5" d="M55.37,96.76c1.93,0,1.93-3,0-3s-1.93,3,0,3h0Z"/>
    <path class="cls-5" d="M53.66,71.25c1.93,0,1.93-3,0-3s-1.93,3,0,3h0Z"/>
    <path class="cls-5" d="M46.86,112.06c1.93,0,1.93-3,0-3s-1.93,3,0,3h0Z"/>
    <path class="cls-5" d="M82.58,120.57c1.93,0,1.93-3,0-3s-1.93,3,0,3h0Z"/>
    <path class="cls-5" d="M111.49,140.98c1.93,0,1.93-3,0-3s-1.93,3,0,3h0Z"/>
    <path class="cls-5" d="M114.89,115.47c1.93,0,1.93-3,0-3s-1.93,3,0,3h0Z"/>
    <path class="cls-5" d="M142.11,101.86c1.93,0,1.93-3,0-3s-1.93,3,0,3h0Z"/>
    <path class="cls-5" d="M138.7,74.65c1.93,0,1.93-3,0-3s-1.93,3,0,3h0Z"/>
    <path class="cls-5" d="M147.21,45.73c1.93,0,1.93-3,0-3s-1.93,3,0,3h0Z"/>
    <path class="cls-5" d="M159.11,110.36c1.93,0,1.93-3,0-3s-1.93,3,0,3h0Z"/>
    <path class="cls-5" d="M123.4,171.59c1.93,0,1.93-3,0-3s-1.93,3,0,3h0Z"/>
    <path class="cls-5" d="M87.68,147.78c1.93,0,1.93-3,0-3s-1.93,3,0,3h0Z"/>
    <path class="cls-5" d="M79.18,115.47c1.93,0,1.93-3,0-3s-1.93,3,0,3h0Z"/>
    <path class="cls-5" d="M106.39,105.26c1.93,0,1.93-3,0-3s-1.93,3,0,3h0Z"/>
    <path class="cls-5" d="M114.89,154.58c1.93,0,1.93-3,0-3s-1.93,3,0,3h0Z"/>
    <g>
      <g>
        <path class="cls-5" d="M-32.75,386.18c1.93,0,1.93-3,0-3s-1.93,3,0,3h0Z"/>
        <path class="cls-5" d="M-24.25,374.27c1.93,0,1.93-3,0-3s-1.93,3,0,3h0Z"/>
        <path class="cls-5" d="M-44.66,370.87c1.93,0,1.93-3,0-3s-1.93,3,0,3h0Z"/>
        <path class="cls-5" d="M-56.56,396.38c1.93,0,1.93-3,0-3s-1.93,3,0,3h0Z"/>
        <path class="cls-5" d="M-27.65,423.6c1.93,0,1.93-3,0-3s-1.93,3,0,3h0Z"/>
        <path class="cls-5" d="M16.57,406.59c1.93,0,1.93-3,0-3s-1.93,3,0,3h0Z"/>
        <path class="cls-5" d="M16.57,379.38c1.93,0,1.93-3,0-3s-1.93,3,0,3h0Z"/>
        <path class="cls-5" d="M13.17,358.97c1.93,0,1.93-3,0-3s-1.93,3,0,3h0Z"/>
        <path class="cls-5" d="M52.29,358.97c1.93,0,1.93-3,0-3s-1.93,3,0,3h0Z"/>
        <path class="cls-5" d="M42.08,384.48c1.93,0,1.93-3,0-3s-1.93,3,0,3h0Z"/>
        <path class="cls-5" d="M35.28,375.97c1.93,0,1.93-3,0-3s-1.93,3,0,3h0Z"/>
        <path class="cls-5" d="M25.08,362.37c1.93,0,1.93-3,0-3s-1.93,3,0,3h0Z"/>
        <path class="cls-5" d="M-41.25,355.56c1.93,0,1.93-3,0-3s-1.93,3,0,3h0Z"/>
        <path class="cls-5" d="M-70.17,360.67c1.93,0,1.93-3,0-3s-1.93,3,0,3h0Z"/>
        <path class="cls-5" d="M-70.17,391.28c1.93,0,1.93-3,0-3s-1.93,3,0,3h0Z"/>
        <path class="cls-5" d="M-54.86,428.7c1.93,0,1.93-3,0-3s-1.93,3,0,3h0Z"/>
        <path class="cls-5" d="M-63.36,472.92c1.93,0,1.93-3,0-3s-1.93,3,0,3h0Z"/>
        <path class="cls-5" d="M-12.34,469.52c1.93,0,1.93-3,0-3s-1.93,3,0,3h0Z"/>
        <path class="cls-5" d="M-22.55,435.5c1.93,0,1.93-3,0-3s-1.93,3,0,3h0Z"/>
        <path class="cls-5" d="M-24.25,409.99c1.93,0,1.93-3,0-3s-1.93,3,0,3h0Z"/>
        <path class="cls-5" d="M-31.05,450.81c1.93,0,1.93-3,0-3s-1.93,3,0,3h0Z"/>
        <path class="cls-5" d="M4.67,459.31c1.93,0,1.93-3,0-3s-1.93,3,0,3h0Z"/>
        <path class="cls-5" d="M33.58,479.72c1.93,0,1.93-3,0-3s-1.93,3,0,3h0Z"/>
        <path class="cls-5" d="M36.98,454.21c1.93,0,1.93-3,0-3s-1.93,3,0,3h0Z"/>
        <path class="cls-5" d="M64.19,440.6c1.93,0,1.93-3,0-3s-1.93,3,0,3h0Z"/>
        <path class="cls-5" d="M60.79,413.39c1.93,0,1.93-3,0-3s-1.93,3,0,3h0Z"/>
        <path class="cls-5" d="M69.3,384.48c1.93,0,1.93-3,0-3s-1.93,3,0,3h0Z"/>
        <path class="cls-5" d="M81.2,449.11c1.93,0,1.93-3,0-3s-1.93,3,0,3h0Z"/>
        <path class="cls-5" d="M45.49,510.34c1.93,0,1.93-3,0-3s-1.93,3,0,3h0Z"/>
        <path class="cls-5" d="M9.77,486.53c1.93,0,1.93-3,0-3s-1.93,3,0,3h0Z"/>
        <path class="cls-5" d="M1.27,454.21c1.93,0,1.93-3,0-3s-1.93,3,0,3h0Z"/>
        <path class="cls-5" d="M28.48,444.01c1.93,0,1.93-3,0-3s-1.93,3,0,3h0Z"/>
        <path class="cls-5" d="M36.98,493.33c1.93,0,1.93-3,0-3s-1.93,3,0,3h0Z"/>
      </g>
      <g>
        <path class="cls-5" d="M28.18,294.35c1.93,0,1.93-3,0-3s-1.93,3,0,3h0Z"/>
        <path class="cls-5" d="M36.69,282.44c1.93,0,1.93-3,0-3s-1.93,3,0,3h0Z"/>
        <path class="cls-5" d="M16.28,279.04c1.93,0,1.93-3,0-3s-1.93,3,0,3h0Z"/>
        <path class="cls-5" d="M4.37,304.56c1.93,0,1.93-3,0-3s-1.93,3,0,3h0Z"/>
        <path class="cls-5" d="M33.28,331.77c1.93,0,1.93-3,0-3s-1.93,3,0,3h0Z"/>
        <path class="cls-5" d="M77.51,314.76c1.93,0,1.93-3,0-3s-1.93,3,0,3h0Z"/>
        <path class="cls-5" d="M77.51,287.55c1.93,0,1.93-3,0-3s-1.93,3,0,3h0Z"/>
        <path class="cls-5" d="M74.1,267.14c1.93,0,1.93-3,0-3s-1.93,3,0,3h0Z"/>
        <path class="cls-5" d="M113.22,267.14c1.93,0,1.93-3,0-3s-1.93,3,0,3h0Z"/>
        <path class="cls-5" d="M103.02,292.65c1.93,0,1.93-3,0-3s-1.93,3,0,3h0Z"/>
        <path class="cls-5" d="M96.21,284.15c1.93,0,1.93-3,0-3s-1.93,3,0,3h0Z"/>
        <path class="cls-5" d="M86.01,270.54c1.93,0,1.93-3,0-3s-1.93,3,0,3h0Z"/>
        <path class="cls-5" d="M19.68,263.74c1.93,0,1.93-3,0-3s-1.93,3,0,3h0Z"/>
        <path class="cls-5" d="M-9.23,268.84c1.93,0,1.93-3,0-3s-1.93,3,0,3h0Z"/>
        <path class="cls-5" d="M-9.23,299.45c1.93,0,1.93-3,0-3s-1.93,3,0,3h0Z"/>
        <path class="cls-5" d="M6.07,336.87c1.93,0,1.93-3,0-3s-1.93,3,0,3h0Z"/>
        <path class="cls-5" d="M-2.43,381.09c1.93,0,1.93-3,0-3s-1.93,3,0,3h0Z"/>
        <path class="cls-5" d="M48.59,377.69c1.93,0,1.93-3,0-3s-1.93,3,0,3h0Z"/>
        <path class="cls-5" d="M38.39,343.67c1.93,0,1.93-3,0-3s-1.93,3,0,3h0Z"/>
        <path class="cls-5" d="M36.69,318.16c1.93,0,1.93-3,0-3s-1.93,3,0,3h0Z"/>
        <path class="cls-5" d="M29.88,358.98c1.93,0,1.93-3,0-3s-1.93,3,0,3h0Z"/>
        <path class="cls-5" d="M65.6,367.48c1.93,0,1.93-3,0-3s-1.93,3,0,3h0Z"/>
        <path class="cls-5" d="M94.51,387.89c1.93,0,1.93-3,0-3s-1.93,3,0,3h0Z"/>
        <path class="cls-5" d="M97.91,362.38c1.93,0,1.93-3,0-3s-1.93,3,0,3h0Z"/>
        <path class="cls-5" d="M125.13,348.78c1.93,0,1.93-3,0-3s-1.93,3,0,3h0Z"/>
        <path class="cls-5" d="M121.73,321.56c1.93,0,1.93-3,0-3s-1.93,3,0,3h0Z"/>
        <path class="cls-5" d="M130.23,292.65c1.93,0,1.93-3,0-3s-1.93,3,0,3h0Z"/>
        <path class="cls-5" d="M142.14,357.28c1.93,0,1.93-3,0-3s-1.93,3,0,3h0Z"/>
        <path class="cls-5" d="M106.42,418.51c1.93,0,1.93-3,0-3s-1.93,3,0,3h0Z"/>
        <path class="cls-5" d="M70.7,394.7c1.93,0,1.93-3,0-3s-1.93,3,0,3h0Z"/>
        <path class="cls-5" d="M62.2,362.38c1.93,0,1.93-3,0-3s-1.93,3,0,3h0Z"/>
        <path class="cls-5" d="M89.41,352.18c1.93,0,1.93-3,0-3s-1.93,3,0,3h0Z"/>
        <path class="cls-5" d="M97.91,401.5c1.93,0,1.93-3,0-3s-1.93,3,0,3h0Z"/>
      </g>
      <g>
        <path class="cls-5" d="M91.93,204.79c1.93,0,1.93-3,0-3s-1.93,3,0,3h0Z"/>
        <path class="cls-5" d="M100.44,192.88c1.93,0,1.93-3,0-3s-1.93,3,0,3h0Z"/>
        <path class="cls-5" d="M80.03,189.48c1.93,0,1.93-3,0-3s-1.93,3,0,3h0Z"/>
        <path class="cls-5" d="M68.12,214.99c1.93,0,1.93-3,0-3s-1.93,3,0,3h0Z"/>
        <path class="cls-5" d="M97.04,242.21c1.93,0,1.93-3,0-3s-1.93,3,0,3h0Z"/>
        <path class="cls-5" d="M141.26,225.2c1.93,0,1.93-3,0-3s-1.93,3,0,3h0Z"/>
        <path class="cls-5" d="M141.26,197.99c1.93,0,1.93-3,0-3s-1.93,3,0,3h0Z"/>
        <path class="cls-5" d="M137.86,177.58c1.93,0,1.93-3,0-3s-1.93,3,0,3h0Z"/>
        <path class="cls-5" d="M176.97,177.58c1.93,0,1.93-3,0-3s-1.93,3,0,3h0Z"/>
        <path class="cls-5" d="M166.77,203.09c1.93,0,1.93-3,0-3s-1.93,3,0,3h0Z"/>
        <path class="cls-5" d="M159.97,194.59c1.93,0,1.93-3,0-3s-1.93,3,0,3h0Z"/>
        <path class="cls-5" d="M149.76,180.98c1.93,0,1.93-3,0-3s-1.93,3,0,3h0Z"/>
        <path class="cls-5" d="M83.43,174.18c1.93,0,1.93-3,0-3s-1.93,3,0,3h0Z"/>
        <path class="cls-5" d="M54.52,179.28c1.93,0,1.93-3,0-3s-1.93,3,0,3h0Z"/>
        <path class="cls-5" d="M54.52,209.89c1.93,0,1.93-3,0-3s-1.93,3,0,3h0Z"/>
        <path class="cls-5" d="M69.82,247.31c1.93,0,1.93-3,0-3s-1.93,3,0,3h0Z"/>
        <path class="cls-5" d="M61.32,291.53c1.93,0,1.93-3,0-3s-1.93,3,0,3h0Z"/>
        <path class="cls-5" d="M112.34,288.13c1.93,0,1.93-3,0-3s-1.93,3,0,3h0Z"/>
        <path class="cls-5" d="M102.14,254.11c1.93,0,1.93-3,0-3s-1.93,3,0,3h0Z"/>
        <path class="cls-5" d="M100.44,228.6c1.93,0,1.93-3,0-3s-1.93,3,0,3h0Z"/>
        <path class="cls-5" d="M93.63,269.42c1.93,0,1.93-3,0-3s-1.93,3,0,3h0Z"/>
        <path class="cls-5" d="M129.35,277.92c1.93,0,1.93-3,0-3s-1.93,3,0,3h0Z"/>
        <path class="cls-5" d="M158.26,298.33c1.93,0,1.93-3,0-3s-1.93,3,0,3h0Z"/>
        <path class="cls-5" d="M161.67,272.82c1.93,0,1.93-3,0-3s-1.93,3,0,3h0Z"/>
        <path class="cls-5" d="M188.88,259.22c1.93,0,1.93-3,0-3s-1.93,3,0,3h0Z"/>
        <path class="cls-5" d="M185.48,232c1.93,0,1.93-3,0-3s-1.93,3,0,3h0Z"/>
        <path class="cls-5" d="M193.98,203.09c1.93,0,1.93-3,0-3s-1.93,3,0,3h0Z"/>
        <path class="cls-5" d="M205.89,267.72c1.93,0,1.93-3,0-3s-1.93,3,0,3h0Z"/>
        <path class="cls-5" d="M170.17,328.95c1.93,0,1.93-3,0-3s-1.93,3,0,3h0Z"/>
        <path class="cls-5" d="M134.45,305.14c1.93,0,1.93-3,0-3s-1.93,3,0,3h0Z"/>
        <path class="cls-5" d="M125.95,272.82c1.93,0,1.93-3,0-3s-1.93,3,0,3h0Z"/>
        <path class="cls-5" d="M153.16,262.62c1.93,0,1.93-3,0-3s-1.93,3,0,3h0Z"/>
        <path class="cls-5" d="M161.67,311.94c1.93,0,1.93-3,0-3s-1.93,3,0,3h0Z"/>
      </g>
      <g>
        <path class="cls-5" d="M179.61,138.27c1.93,0,1.93-3,0-3s-1.93,3,0,3h0Z"/>
        <path class="cls-5" d="M188.12,126.37c1.93,0,1.93-3,0-3s-1.93,3,0,3h0Z"/>
        <path class="cls-5" d="M167.71,122.97c1.93,0,1.93-3,0-3s-1.93,3,0,3h0Z"/>
        <path class="cls-5" d="M155.8,148.48c1.93,0,1.93-3,0-3s-1.93,3,0,3h0Z"/>
        <path class="cls-5" d="M184.71,175.69c1.93,0,1.93-3,0-3s-1.93,3,0,3h0Z"/>
        <path class="cls-5" d="M228.93,158.68c1.93,0,1.93-3,0-3s-1.93,3,0,3h0Z"/>
        <path class="cls-5" d="M228.93,131.47c1.93,0,1.93-3,0-3s-1.93,3,0,3h0Z"/>
        <path class="cls-5" d="M225.53,111.06c1.93,0,1.93-3,0-3s-1.93,3,0,3h0Z"/>
        <path class="cls-5" d="M264.65,111.06c1.93,0,1.93-3,0-3s-1.93,3,0,3h0Z"/>
        <path class="cls-5" d="M254.45,136.57c1.93,0,1.93-3,0-3s-1.93,3,0,3h0Z"/>
        <path class="cls-5" d="M247.64,128.07c1.93,0,1.93-3,0-3s-1.93,3,0,3h0Z"/>
        <path class="cls-5" d="M237.44,114.46c1.93,0,1.93-3,0-3s-1.93,3,0,3h0Z"/>
        <path class="cls-5" d="M171.11,107.66c1.93,0,1.93-3,0-3s-1.93,3,0,3h0Z"/>
        <path class="cls-5" d="M142.19,112.76c1.93,0,1.93-3,0-3s-1.93,3,0,3h0Z"/>
        <path class="cls-5" d="M142.19,143.38c1.93,0,1.93-3,0-3s-1.93,3,0,3h0Z"/>
        <path class="cls-5" d="M157.5,180.79c1.93,0,1.93-3,0-3s-1.93,3,0,3h0Z"/>
        <path class="cls-5" d="M149,225.01c1.93,0,1.93-3,0-3s-1.93,3,0,3h0Z"/>
        <path class="cls-5" d="M200.02,221.61c1.93,0,1.93-3,0-3s-1.93,3,0,3h0Z"/>
        <path class="cls-5" d="M189.82,187.6c1.93,0,1.93-3,0-3s-1.93,3,0,3h0Z"/>
        <path class="cls-5" d="M188.12,162.09c1.93,0,1.93-3,0-3s-1.93,3,0,3h0Z"/>
        <path class="cls-5" d="M181.31,202.9c1.93,0,1.93-3,0-3s-1.93,3,0,3h0Z"/>
        <path class="cls-5" d="M217.03,211.41c1.93,0,1.93-3,0-3s-1.93,3,0,3h0Z"/>
        <path class="cls-5" d="M245.94,231.82c1.93,0,1.93-3,0-3s-1.93,3,0,3h0Z"/>
        <path class="cls-5" d="M249.34,206.31c1.93,0,1.93-3,0-3s-1.93,3,0,3h0Z"/>
        <path class="cls-5" d="M276.56,192.7c1.93,0,1.93-3,0-3s-1.93,3,0,3h0Z"/>
        <path class="cls-5" d="M273.16,165.49c1.93,0,1.93-3,0-3s-1.93,3,0,3h0Z"/>
        <path class="cls-5" d="M281.66,136.57c1.93,0,1.93-3,0-3s-1.93,3,0,3h0Z"/>
        <path class="cls-5" d="M293.56,201.2c1.93,0,1.93-3,0-3s-1.93,3,0,3h0Z"/>
        <path class="cls-5" d="M257.85,262.43c1.93,0,1.93-3,0-3s-1.93,3,0,3h0Z"/>
        <path class="cls-5" d="M222.13,238.62c1.93,0,1.93-3,0-3s-1.93,3,0,3h0Z"/>
        <path class="cls-5" d="M213.63,206.31c1.93,0,1.93-3,0-3s-1.93,3,0,3h0Z"/>
        <path class="cls-5" d="M240.84,196.1c1.93,0,1.93-3,0-3s-1.93,3,0,3h0Z"/>
        <path class="cls-5" d="M249.34,245.42c1.93,0,1.93-3,0-3s-1.93,3,0,3h0Z"/>
      </g>
      <g>
        <path class="cls-5" d="M277.53,87.25c1.93,0,1.93-3,0-3s-1.93,3,0,3h0Z"/>
        <path class="cls-5" d="M286.03,75.34c1.93,0,1.93-3,0-3s-1.93,3,0,3h0Z"/>
        <path class="cls-5" d="M265.62,71.94c1.93,0,1.93-3,0-3s-1.93,3,0,3h0Z"/>
        <path class="cls-5" d="M253.71,97.45c1.93,0,1.93-3,0-3s-1.93,3,0,3h0Z"/>
        <path class="cls-5" d="M282.63,124.67c1.93,0,1.93-3,0-3s-1.93,3,0,3h0Z"/>
        <path class="cls-5" d="M326.85,107.66c1.93,0,1.93-3,0-3s-1.93,3,0,3h0Z"/>
        <path class="cls-5" d="M326.85,80.45c1.93,0,1.93-3,0-3s-1.93,3,0,3h0Z"/>
        <path class="cls-5" d="M323.45,60.04c1.93,0,1.93-3,0-3s-1.93,3,0,3h0Z"/>
        <path class="cls-5" d="M362.56,60.04c1.93,0,1.93-3,0-3s-1.93,3,0,3h0Z"/>
        <path class="cls-5" d="M352.36,85.55c1.93,0,1.93-3,0-3s-1.93,3,0,3h0Z"/>
        <path class="cls-5" d="M345.56,77.04c1.93,0,1.93-3,0-3s-1.93,3,0,3h0Z"/>
        <path class="cls-5" d="M335.35,63.44c1.93,0,1.93-3,0-3s-1.93,3,0,3h0Z"/>
        <path class="cls-5" d="M269.02,56.63c1.93,0,1.93-3,0-3s-1.93,3,0,3h0Z"/>
        <path class="cls-5" d="M240.11,61.74c1.93,0,1.93-3,0-3s-1.93,3,0,3h0Z"/>
        <path class="cls-5" d="M240.11,92.35c1.93,0,1.93-3,0-3s-1.93,3,0,3h0Z"/>
        <path class="cls-5" d="M255.41,129.77c1.93,0,1.93-3,0-3s-1.93,3,0,3h0Z"/>
        <path class="cls-5" d="M246.91,173.99c1.93,0,1.93-3,0-3s-1.93,3,0,3h0Z"/>
        <path class="cls-5" d="M297.93,170.59c1.93,0,1.93-3,0-3s-1.93,3,0,3h0Z"/>
        <path class="cls-5" d="M287.73,136.57c1.93,0,1.93-3,0-3s-1.93,3,0,3h0Z"/>
        <path class="cls-5" d="M286.03,111.06c1.93,0,1.93-3,0-3s-1.93,3,0,3h0Z"/>
        <path class="cls-5" d="M279.23,151.88c1.93,0,1.93-3,0-3s-1.93,3,0,3h0Z"/>
        <path class="cls-5" d="M314.94,160.38c1.93,0,1.93-3,0-3s-1.93,3,0,3h0Z"/>
        <path class="cls-5" d="M343.86,180.79c1.93,0,1.93-3,0-3s-1.93,3,0,3h0Z"/>
        <path class="cls-5" d="M347.26,155.28c1.93,0,1.93-3,0-3s-1.93,3,0,3h0Z"/>
        <path class="cls-5" d="M374.47,141.67c1.93,0,1.93-3,0-3s-1.93,3,0,3h0Z"/>
        <path class="cls-5" d="M371.07,114.46c1.93,0,1.93-3,0-3s-1.93,3,0,3h0Z"/>
        <path class="cls-5" d="M379.57,85.55c1.93,0,1.93-3,0-3s-1.93,3,0,3h0Z"/>
        <path class="cls-5" d="M391.48,150.18c1.93,0,1.93-3,0-3s-1.93,3,0,3h0Z"/>
        <path class="cls-5" d="M355.76,211.41c1.93,0,1.93-3,0-3s-1.93,3,0,3h0Z"/>
        <path class="cls-5" d="M320.04,187.6c1.93,0,1.93-3,0-3s-1.93,3,0,3h0Z"/>
        <path class="cls-5" d="M311.54,155.28c1.93,0,1.93-3,0-3s-1.93,3,0,3h0Z"/>
        <path class="cls-5" d="M338.75,145.08c1.93,0,1.93-3,0-3s-1.93,3,0,3h0Z"/>
        <path class="cls-5" d="M347.26,194.4c1.93,0,1.93-3,0-3s-1.93,3,0,3h0Z"/>
      </g>
      <g>
        <path class="cls-5" d="M378.35,42.18c1.93,0,1.93-3,0-3s-1.93,3,0,3h0Z"/>
        <path class="cls-5" d="M386.85,30.28c1.93,0,1.93-3,0-3s-1.93,3,0,3h0Z"/>
        <path class="cls-5" d="M366.44,26.88c1.93,0,1.93-3,0-3s-1.93,3,0,3h0Z"/>
        <path class="cls-5" d="M354.54,52.39c1.93,0,1.93-3,0-3s-1.93,3,0,3h0Z"/>
        <path class="cls-5" d="M383.45,79.6c1.93,0,1.93-3,0-3s-1.93,3,0,3h0Z"/>
        <path class="cls-5" d="M427.67,62.59c1.93,0,1.93-3,0-3s-1.93,3,0,3h0Z"/>
        <path class="cls-5" d="M427.67,35.38c1.93,0,1.93-3,0-3s-1.93,3,0,3h0Z"/>
        <path class="cls-5" d="M424.27,14.97c1.93,0,1.93-3,0-3s-1.93,3,0,3h0Z"/>
        <path class="cls-5" d="M463.39,14.97c1.93,0,1.93-3,0-3s-1.93,3,0,3h0Z"/>
        <path class="cls-5" d="M453.18,40.48c1.93,0,1.93-3,0-3s-1.93,3,0,3h0Z"/>
        <path class="cls-5" d="M446.38,31.98c1.93,0,1.93-3,0-3s-1.93,3,0,3h0Z"/>
        <path class="cls-5" d="M436.18,18.37c1.93,0,1.93-3,0-3s-1.93,3,0,3h0Z"/>
        <path class="cls-5" d="M369.85,11.57c1.93,0,1.93-3,0-3s-1.93,3,0,3h0Z"/>
        <path class="cls-5" d="M340.93,16.67c1.93,0,1.93-3,0-3s-1.93,3,0,3h0Z"/>
        <path class="cls-5" d="M340.93,47.28c1.93,0,1.93-3,0-3s-1.93,3,0,3h0Z"/>
        <path class="cls-5" d="M356.24,84.7c1.93,0,1.93-3,0-3s-1.93,3,0,3h0Z"/>
        <path class="cls-5" d="M347.74,128.92c1.93,0,1.93-3,0-3s-1.93,3,0,3h0Z"/>
        <path class="cls-5" d="M398.76,125.52c1.93,0,1.93-3,0-3s-1.93,3,0,3h0Z"/>
        <path class="cls-5" d="M388.55,91.51c1.93,0,1.93-3,0-3s-1.93,3,0,3h0Z"/>
        <path class="cls-5" d="M386.85,65.99c1.93,0,1.93-3,0-3s-1.93,3,0,3h0Z"/>
        <path class="cls-5" d="M380.05,106.81c1.93,0,1.93-3,0-3s-1.93,3,0,3h0Z"/>
        <path class="cls-5" d="M415.77,115.32c1.93,0,1.93-3,0-3s-1.93,3,0,3h0Z"/>
        <path class="cls-5" d="M444.68,135.73c1.93,0,1.93-3,0-3s-1.93,3,0,3h0Z"/>
        <path class="cls-5" d="M448.08,110.21c1.93,0,1.93-3,0-3s-1.93,3,0,3h0Z"/>
        <path class="cls-5" d="M475.3,96.61c1.93,0,1.93-3,0-3s-1.93,3,0,3h0Z"/>
        <path class="cls-5" d="M471.89,69.4c1.93,0,1.93-3,0-3s-1.93,3,0,3h0Z"/>
        <path class="cls-5" d="M480.4,40.48c1.93,0,1.93-3,0-3s-1.93,3,0,3h0Z"/>
        <path class="cls-5" d="M492.3,105.11c1.93,0,1.93-3,0-3s-1.93,3,0,3h0Z"/>
        <path class="cls-5" d="M456.59,166.34c1.93,0,1.93-3,0-3s-1.93,3,0,3h0Z"/>
        <path class="cls-5" d="M420.87,142.53c1.93,0,1.93-3,0-3s-1.93,3,0,3h0Z"/>
        <path class="cls-5" d="M412.37,110.21c1.93,0,1.93-3,0-3s-1.93,3,0,3h0Z"/>
        <path class="cls-5" d="M439.58,100.01c1.93,0,1.93-3,0-3s-1.93,3,0,3h0Z"/>
        <path class="cls-5" d="M448.08,149.33c1.93,0,1.93-3,0-3s-1.93,3,0,3h0Z"/>
      </g>
      <g>
        <path class="cls-5" d="M479.02-3.18c1.93,0,1.93-3,0-3s-1.93,3,0,3h0Z"/>
        <path class="cls-5" d="M487.53-15.09c1.93,0,1.93-3,0-3s-1.93,3,0,3h0Z"/>
        <path class="cls-5" d="M467.12-18.49c1.93,0,1.93-3,0-3s-1.93,3,0,3h0Z"/>
        <path class="cls-5" d="M455.21,7.03c1.93,0,1.93-3,0-3s-1.93,3,0,3h0Z"/>
        <path class="cls-5" d="M484.12,34.24c1.93,0,1.93-3,0-3s-1.93,3,0,3h0Z"/>
        <path class="cls-5" d="M528.35,17.23c1.93,0,1.93-3,0-3s-1.93,3,0,3h0Z"/>
        <path class="cls-5" d="M528.35-9.98c1.93,0,1.93-3,0-3s-1.93,3,0,3h0Z"/>
        <path class="cls-5" d="M524.94-30.39c1.93,0,1.93-3,0-3s-1.93,3,0,3h0Z"/>
        <path class="cls-5" d="M564.06-30.39c1.93,0,1.93-3,0-3s-1.93,3,0,3h0Z"/>
        <path class="cls-5" d="M553.86-4.88c1.93,0,1.93-3,0-3s-1.93,3,0,3h0Z"/>
        <path class="cls-5" d="M547.05-13.38c1.93,0,1.93-3,0-3s-1.93,3,0,3h0Z"/>
        <path class="cls-5" d="M536.85-26.99c1.93,0,1.93-3,0-3s-1.93,3,0,3h0Z"/>
        <path class="cls-5" d="M470.52-33.79c1.93,0,1.93-3,0-3s-1.93,3,0,3h0Z"/>
        <path class="cls-5" d="M441.61-28.69c1.93,0,1.93-3,0-3s-1.93,3,0,3h0Z"/>
        <path class="cls-5" d="M441.61,1.92c1.93,0,1.93-3,0-3s-1.93,3,0,3h0Z"/>
        <path class="cls-5" d="M456.91,39.34c1.93,0,1.93-3,0-3s-1.93,3,0,3h0Z"/>
        <path class="cls-5" d="M448.41,83.56c1.93,0,1.93-3,0-3s-1.93,3,0,3h0Z"/>
        <path class="cls-5" d="M499.43,80.16c1.93,0,1.93-3,0-3s-1.93,3,0,3h0Z"/>
        <path class="cls-5" d="M489.23,46.14c1.93,0,1.93-3,0-3s-1.93,3,0,3h0Z"/>
        <path class="cls-5" d="M487.53,20.63c1.93,0,1.93-3,0-3s-1.93,3,0,3h0Z"/>
        <path class="cls-5" d="M480.72,61.45c1.93,0,1.93-3,0-3s-1.93,3,0,3h0Z"/>
        <path class="cls-5" d="M516.44,69.95c1.93,0,1.93-3,0-3s-1.93,3,0,3h0Z"/>
        <path class="cls-5" d="M545.35,90.36c1.93,0,1.93-3,0-3s-1.93,3,0,3h0Z"/>
        <path class="cls-5" d="M548.75,64.85c1.93,0,1.93-3,0-3s-1.93,3,0,3h0Z"/>
        <path class="cls-5" d="M575.97,51.25c1.93,0,1.93-3,0-3s-1.93,3,0,3h0Z"/>
        <path class="cls-5" d="M572.57,24.03c1.93,0,1.93-3,0-3s-1.93,3,0,3h0Z"/>
        <path class="cls-5" d="M581.07-4.88c1.93,0,1.93-3,0-3s-1.93,3,0,3h0Z"/>
        <path class="cls-5" d="M592.98,59.75c1.93,0,1.93-3,0-3s-1.93,3,0,3h0Z"/>
        <path class="cls-5" d="M557.26,120.98c1.93,0,1.93-3,0-3s-1.93,3,0,3h0Z"/>
        <path class="cls-5" d="M521.54,97.17c1.93,0,1.93-3,0-3s-1.93,3,0,3h0Z"/>
        <path class="cls-5" d="M513.04,64.85c1.93,0,1.93-3,0-3s-1.93,3,0,3h0Z"/>
        <path class="cls-5" d="M540.25,54.65c1.93,0,1.93-3,0-3s-1.93,3,0,3h0Z"/>
        <path class="cls-5" d="M548.75,103.97c1.93,0,1.93-3,0-3s-1.93,3,0,3h0Z"/>
      </g>
      <g>
        <path class="cls-5" d="M576.36-55.1c1.93,0,1.93-3,0-3s-1.93,3,0,3h0Z"/>
        <path class="cls-5" d="M584.86-67c1.93,0,1.93-3,0-3s-1.93,3,0,3h0Z"/>
        <path class="cls-5" d="M564.46-70.4c1.93,0,1.93-3,0-3s-1.93,3,0,3h0Z"/>
        <path class="cls-5" d="M552.55-44.89c1.93,0,1.93-3,0-3s-1.93,3,0,3h0Z"/>
        <path class="cls-5" d="M581.46-17.68c1.93,0,1.93-3,0-3s-1.93,3,0,3h0Z"/>
        <path class="cls-5" d="M625.68-34.69c1.93,0,1.93-3,0-3s-1.93,3,0,3h0Z"/>
        <path class="cls-5" d="M625.68-61.9c1.93,0,1.93-3,0-3s-1.93,3,0,3h0Z"/>
        <path class="cls-5" d="M622.28-82.31c1.93,0,1.93-3,0-3s-1.93,3,0,3h0Z"/>
        <path class="cls-5" d="M661.4-82.31c1.93,0,1.93-3,0-3s-1.93,3,0,3h0Z"/>
        <path class="cls-5" d="M651.2-56.8c1.93,0,1.93-3,0-3s-1.93,3,0,3h0Z"/>
        <path class="cls-5" d="M644.39-65.3c1.93,0,1.93-3,0-3s-1.93,3,0,3h0Z"/>
        <path class="cls-5" d="M634.19-78.91c1.93,0,1.93-3,0-3s-1.93,3,0,3h0Z"/>
        <path class="cls-5" d="M567.86-85.71c1.93,0,1.93-3,0-3s-1.93,3,0,3h0Z"/>
        <path class="cls-5" d="M538.94-80.61c1.93,0,1.93-3,0-3s-1.93,3,0,3h0Z"/>
        <path class="cls-5" d="M538.94-49.99c1.93,0,1.93-3,0-3s-1.93,3,0,3h0Z"/>
        <path class="cls-5" d="M554.25-12.58c1.93,0,1.93-3,0-3s-1.93,3,0,3h0Z"/>
        <path class="cls-5" d="M545.75,31.64c1.93,0,1.93-3,0-3s-1.93,3,0,3h0Z"/>
        <path class="cls-5" d="M596.77,28.24c1.93,0,1.93-3,0-3s-1.93,3,0,3h0Z"/>
        <path class="cls-5" d="M586.57-5.77c1.93,0,1.93-3,0-3s-1.93,3,0,3h0Z"/>
        <path class="cls-5" d="M584.86-31.29c1.93,0,1.93-3,0-3s-1.93,3,0,3h0Z"/>
        <path class="cls-5" d="M578.06,9.53c1.93,0,1.93-3,0-3s-1.93,3,0,3h0Z"/>
        <path class="cls-5" d="M613.78,18.04c1.93,0,1.93-3,0-3s-1.93,3,0,3h0Z"/>
        <path class="cls-5" d="M642.69,38.45c1.93,0,1.93-3,0-3s-1.93,3,0,3h0Z"/>
        <path class="cls-5" d="M646.09,12.93c1.93,0,1.93-3,0-3s-1.93,3,0,3h0Z"/>
        <path class="cls-5" d="M673.31-.67c1.93,0,1.93-3,0-3s-1.93,3,0,3h0Z"/>
        <path class="cls-5" d="M669.9-27.88c1.93,0,1.93-3,0-3s-1.93,3,0,3h0Z"/>
        <path class="cls-5" d="M678.41-56.8c1.93,0,1.93-3,0-3s-1.93,3,0,3h0Z"/>
        <path class="cls-5" d="M690.31,7.83c1.93,0,1.93-3,0-3s-1.93,3,0,3h0Z"/>
        <path class="cls-5" d="M654.6,69.06c1.93,0,1.93-3,0-3s-1.93,3,0,3h0Z"/>
        <path class="cls-5" d="M618.88,45.25c1.93,0,1.93-3,0-3s-1.93,3,0,3h0Z"/>
        <path class="cls-5" d="M610.38,12.93c1.93,0,1.93-3,0-3s-1.93,3,0,3h0Z"/>
        <path class="cls-5" d="M637.59,2.73c1.93,0,1.93-3,0-3s-1.93,3,0,3h0Z"/>
        <path class="cls-5" d="M646.09,52.05c1.93,0,1.93-3,0-3s-1.93,3,0,3h0Z"/>
      </g>
      <g>
        <path class="cls-5" d="M571.69-79.85c1.93,0,1.93-3,0-3s-1.93,3,0,3h0Z"/>
        <path class="cls-5" d="M580.2-91.75c1.93,0,1.93-3,0-3s-1.93,3,0,3h0Z"/>
        <path class="cls-5" d="M559.79-95.15c1.93,0,1.93-3,0-3s-1.93,3,0,3h0Z"/>
        <path class="cls-5" d="M547.88-69.64c1.93,0,1.93-3,0-3s-1.93,3,0,3h0Z"/>
        <path class="cls-5" d="M576.8-42.43c1.93,0,1.93-3,0-3s-1.93,3,0,3h0Z"/>
        <path class="cls-5" d="M621.02-59.44c1.93,0,1.93-3,0-3s-1.93,3,0,3h0Z"/>
        <path class="cls-5" d="M621.02-86.65c1.93,0,1.93-3,0-3s-1.93,3,0,3h0Z"/>
        <path class="cls-5" d="M617.62-107.06c1.93,0,1.93-3,0-3s-1.93,3,0,3h0Z"/>
        <path class="cls-5" d="M656.73-107.06c1.93,0,1.93-3,0-3s-1.93,3,0,3h0Z"/>
        <path class="cls-5" d="M646.53-81.55c1.93,0,1.93-3,0-3s-1.93,3,0,3h0Z"/>
        <path class="cls-5" d="M639.73-90.05c1.93,0,1.93-3,0-3s-1.93,3,0,3h0Z"/>
        <path class="cls-5" d="M629.52-103.66c1.93,0,1.93-3,0-3s-1.93,3,0,3h0Z"/>
        <path class="cls-5" d="M563.19-110.46c1.93,0,1.93-3,0-3s-1.93,3,0,3h0Z"/>
        <path class="cls-5" d="M534.28-105.36c1.93,0,1.93-3,0-3s-1.93,3,0,3h0Z"/>
        <path class="cls-5" d="M534.28-74.75c1.93,0,1.93-3,0-3s-1.93,3,0,3h0Z"/>
        <path class="cls-5" d="M549.58-37.33c1.93,0,1.93-3,0-3s-1.93,3,0,3h0Z"/>
        <path class="cls-5" d="M541.08,6.89c1.93,0,1.93-3,0-3s-1.93,3,0,3h0Z"/>
        <path class="cls-5" d="M592.1,3.49c1.93,0,1.93-3,0-3s-1.93,3,0,3h0Z"/>
        <path class="cls-5" d="M581.9-30.53c1.93,0,1.93-3,0-3s-1.93,3,0,3h0Z"/>
        <path class="cls-5" d="M580.2-56.04c1.93,0,1.93-3,0-3s-1.93,3,0,3h0Z"/>
        <path class="cls-5" d="M573.4-15.22c1.93,0,1.93-3,0-3s-1.93,3,0,3h0Z"/>
        <path class="cls-5" d="M609.11-6.71c1.93,0,1.93-3,0-3s-1.93,3,0,3h0Z"/>
        <path class="cls-5" d="M638.03,13.7c1.93,0,1.93-3,0-3s-1.93,3,0,3h0Z"/>
        <path class="cls-5" d="M641.43-11.82c1.93,0,1.93-3,0-3s-1.93,3,0,3h0Z"/>
        <path class="cls-5" d="M668.64-25.42c1.93,0,1.93-3,0-3s-1.93,3,0,3h0Z"/>
        <path class="cls-5" d="M665.24-52.64c1.93,0,1.93-3,0-3s-1.93,3,0,3h0Z"/>
        <path class="cls-5" d="M673.74-81.55c1.93,0,1.93-3,0-3s-1.93,3,0,3h0Z"/>
        <path class="cls-5" d="M685.65-16.92c1.93,0,1.93-3,0-3s-1.93,3,0,3h0Z"/>
        <path class="cls-5" d="M649.93,44.31c1.93,0,1.93-3,0-3s-1.93,3,0,3h0Z"/>
        <path class="cls-5" d="M614.21,20.5c1.93,0,1.93-3,0-3s-1.93,3,0,3h0Z"/>
        <path class="cls-5" d="M605.71-11.82c1.93,0,1.93-3,0-3s-1.93,3,0,3h0Z"/>
        <path class="cls-5" d="M632.92-22.02c1.93,0,1.93-3,0-3s-1.93,3,0,3h0Z"/>
        <path class="cls-5" d="M641.43,27.3c1.93,0,1.93-3,0-3s-1.93,3,0,3h0Z"/>
      </g>
      <g>
        <path class="cls-5" d="M465.2-51.61c1.93,0,1.93-3,0-3s-1.93,3,0,3h0Z"/>
        <path class="cls-5" d="M473.7-63.51c1.93,0,1.93-3,0-3s-1.93,3,0,3h0Z"/>
        <path class="cls-5" d="M453.29-66.91c1.93,0,1.93-3,0-3s-1.93,3,0,3h0Z"/>
        <path class="cls-5" d="M441.39-41.4c1.93,0,1.93-3,0-3s-1.93,3,0,3h0Z"/>
        <path class="cls-5" d="M470.3-14.19c1.93,0,1.93-3,0-3s-1.93,3,0,3h0Z"/>
        <path class="cls-5" d="M514.52-31.2c1.93,0,1.93-3,0-3s-1.93,3,0,3h0Z"/>
        <path class="cls-5" d="M514.52-58.41c1.93,0,1.93-3,0-3s-1.93,3,0,3h0Z"/>
        <path class="cls-5" d="M511.12-78.82c1.93,0,1.93-3,0-3s-1.93,3,0,3h0Z"/>
        <path class="cls-5" d="M550.24-78.82c1.93,0,1.93-3,0-3s-1.93,3,0,3h0Z"/>
        <path class="cls-5" d="M540.03-53.31c1.93,0,1.93-3,0-3s-1.93,3,0,3h0Z"/>
        <path class="cls-5" d="M533.23-61.81c1.93,0,1.93-3,0-3s-1.93,3,0,3h0Z"/>
        <path class="cls-5" d="M523.02-75.42c1.93,0,1.93-3,0-3s-1.93,3,0,3h0Z"/>
        <path class="cls-5" d="M456.69-82.22c1.93,0,1.93-3,0-3s-1.93,3,0,3h0Z"/>
        <path class="cls-5" d="M427.78-77.12c1.93,0,1.93-3,0-3s-1.93,3,0,3h0Z"/>
        <path class="cls-5" d="M427.78-46.5c1.93,0,1.93-3,0-3s-1.93,3,0,3h0Z"/>
        <path class="cls-5" d="M443.09-9.09c1.93,0,1.93-3,0-3s-1.93,3,0,3h0Z"/>
        <path class="cls-5" d="M434.58,35.13c1.93,0,1.93-3,0-3s-1.93,3,0,3h0Z"/>
        <path class="cls-5" d="M485.61,31.73c1.93,0,1.93-3,0-3s-1.93,3,0,3h0Z"/>
        <path class="cls-5" d="M475.4-2.28c1.93,0,1.93-3,0-3s-1.93,3,0,3h0Z"/>
        <path class="cls-5" d="M473.7-27.8c1.93,0,1.93-3,0-3s-1.93,3,0,3h0Z"/>
        <path class="cls-5" d="M466.9,13.02c1.93,0,1.93-3,0-3s-1.93,3,0,3h0Z"/>
        <path class="cls-5" d="M502.61,21.53c1.93,0,1.93-3,0-3s-1.93,3,0,3h0Z"/>
        <path class="cls-5" d="M531.53,41.94c1.93,0,1.93-3,0-3s-1.93,3,0,3h0Z"/>
        <path class="cls-5" d="M534.93,16.42c1.93,0,1.93-3,0-3s-1.93,3,0,3h0Z"/>
        <path class="cls-5" d="M562.14,2.82c1.93,0,1.93-3,0-3s-1.93,3,0,3h0Z"/>
        <path class="cls-5" d="M558.74-24.39c1.93,0,1.93-3,0-3s-1.93,3,0,3h0Z"/>
        <path class="cls-5" d="M567.24-53.31c1.93,0,1.93-3,0-3s-1.93,3,0,3h0Z"/>
        <path class="cls-5" d="M579.15,11.32c1.93,0,1.93-3,0-3s-1.93,3,0,3h0Z"/>
        <path class="cls-5" d="M543.43,72.55c1.93,0,1.93-3,0-3s-1.93,3,0,3h0Z"/>
        <path class="cls-5" d="M507.72,48.74c1.93,0,1.93-3,0-3s-1.93,3,0,3h0Z"/>
        <path class="cls-5" d="M499.21,16.42c1.93,0,1.93-3,0-3s-1.93,3,0,3h0Z"/>
        <path class="cls-5" d="M526.42,6.22c1.93,0,1.93-3,0-3s-1.93,3,0,3h0Z"/>
        <path class="cls-5" d="M534.93,55.54c1.93,0,1.93-3,0-3s-1.93,3,0,3h0Z"/>
      </g>
      <g>
        <path class="cls-5" d="M367.25-1.1c1.93,0,1.93-3,0-3s-1.93,3,0,3h0Z"/>
        <path class="cls-5" d="M375.76-13.01c1.93,0,1.93-3,0-3s-1.93,3,0,3h0Z"/>
        <path class="cls-5" d="M355.35-16.41c1.93,0,1.93-3,0-3s-1.93,3,0,3h0Z"/>
        <path class="cls-5" d="M343.44,9.1c1.93,0,1.93-3,0-3s-1.93,3,0,3h0Z"/>
        <path class="cls-5" d="M372.36,36.31c1.93,0,1.93-3,0-3s-1.93,3,0,3h0Z"/>
        <path class="cls-5" d="M416.58,19.31c1.93,0,1.93-3,0-3s-1.93,3,0,3h0Z"/>
        <path class="cls-5" d="M416.58-7.91c1.93,0,1.93-3,0-3s-1.93,3,0,3h0Z"/>
        <path class="cls-5" d="M413.18-28.32c1.93,0,1.93-3,0-3s-1.93,3,0,3h0Z"/>
        <path class="cls-5" d="M452.29-28.32c1.93,0,1.93-3,0-3s-1.93,3,0,3h0Z"/>
        <path class="cls-5" d="M442.09-2.8c1.93,0,1.93-3,0-3s-1.93,3,0,3h0Z"/>
        <path class="cls-5" d="M435.29-11.31c1.93,0,1.93-3,0-3s-1.93,3,0,3h0Z"/>
        <path class="cls-5" d="M425.08-24.91c1.93,0,1.93-3,0-3s-1.93,3,0,3h0Z"/>
        <path class="cls-5" d="M358.75-31.72c1.93,0,1.93-3,0-3s-1.93,3,0,3h0Z"/>
        <path class="cls-5" d="M329.84-26.62c1.93,0,1.93-3,0-3s-1.93,3,0,3h0Z"/>
        <path class="cls-5" d="M329.84,4c1.93,0,1.93-3,0-3s-1.93,3,0,3h0Z"/>
        <path class="cls-5" d="M345.14,41.42c1.93,0,1.93-3,0-3s-1.93,3,0,3h0Z"/>
        <path class="cls-5" d="M336.64,85.64c1.93,0,1.93-3,0-3s-1.93,3,0,3h0Z"/>
        <path class="cls-5" d="M387.66,82.24c1.93,0,1.93-3,0-3s-1.93,3,0,3h0Z"/>
        <path class="cls-5" d="M377.46,48.22c1.93,0,1.93-3,0-3s-1.93,3,0,3h0Z"/>
        <path class="cls-5" d="M375.76,22.71c1.93,0,1.93-3,0-3s-1.93,3,0,3h0Z"/>
        <path class="cls-5" d="M368.96,63.53c1.93,0,1.93-3,0-3s-1.93,3,0,3h0Z"/>
        <path class="cls-5" d="M404.67,72.03c1.93,0,1.93-3,0-3s-1.93,3,0,3h0Z"/>
        <path class="cls-5" d="M433.59,92.44c1.93,0,1.93-3,0-3s-1.93,3,0,3h0Z"/>
        <path class="cls-5" d="M436.99,66.93c1.93,0,1.93-3,0-3s-1.93,3,0,3h0Z"/>
        <path class="cls-5" d="M464.2,53.32c1.93,0,1.93-3,0-3s-1.93,3,0,3h0Z"/>
        <path class="cls-5" d="M460.8,26.11c1.93,0,1.93-3,0-3s-1.93,3,0,3h0Z"/>
        <path class="cls-5" d="M469.3-2.8c1.93,0,1.93-3,0-3s-1.93,3,0,3h0Z"/>
        <path class="cls-5" d="M481.21,61.83c1.93,0,1.93-3,0-3s-1.93,3,0,3h0Z"/>
        <path class="cls-5" d="M445.49,123.05c1.93,0,1.93-3,0-3s-1.93,3,0,3h0Z"/>
        <path class="cls-5" d="M409.77,99.24c1.93,0,1.93-3,0-3s-1.93,3,0,3h0Z"/>
        <path class="cls-5" d="M401.27,66.93c1.93,0,1.93-3,0-3s-1.93,3,0,3h0Z"/>
        <path class="cls-5" d="M428.48,56.72c1.93,0,1.93-3,0-3s-1.93,3,0,3h0Z"/>
        <path class="cls-5" d="M436.99,106.05c1.93,0,1.93-3,0-3s-1.93,3,0,3h0Z"/>
      </g>
      <g>
        <path class="cls-5" d="M276.99,62.41c1.93,0,1.93-3,0-3s-1.93,3,0,3h0Z"/>
        <path class="cls-5" d="M285.5,50.51c1.93,0,1.93-3,0-3s-1.93,3,0,3h0Z"/>
        <path class="cls-5" d="M265.09,47.1c1.93,0,1.93-3,0-3s-1.93,3,0,3h0Z"/>
        <path class="cls-5" d="M253.18,72.62c1.93,0,1.93-3,0-3s-1.93,3,0,3h0Z"/>
        <path class="cls-5" d="M282.09,99.83c1.93,0,1.93-3,0-3s-1.93,3,0,3h0Z"/>
        <path class="cls-5" d="M326.31,82.82c1.93,0,1.93-3,0-3s-1.93,3,0,3h0Z"/>
        <path class="cls-5" d="M326.31,55.61c1.93,0,1.93-3,0-3s-1.93,3,0,3h0Z"/>
        <path class="cls-5" d="M322.91,35.2c1.93,0,1.93-3,0-3s-1.93,3,0,3h0Z"/>
        <path class="cls-5" d="M362.03,35.2c1.93,0,1.93-3,0-3s-1.93,3,0,3h0Z"/>
        <path class="cls-5" d="M351.83,60.71c1.93,0,1.93-3,0-3s-1.93,3,0,3h0Z"/>
        <path class="cls-5" d="M345.02,52.21c1.93,0,1.93-3,0-3s-1.93,3,0,3h0Z"/>
        <path class="cls-5" d="M334.82,38.6c1.93,0,1.93-3,0-3s-1.93,3,0,3h0Z"/>
        <path class="cls-5" d="M268.49,31.8c1.93,0,1.93-3,0-3s-1.93,3,0,3h0Z"/>
        <path class="cls-5" d="M239.57,36.9c1.93,0,1.93-3,0-3s-1.93,3,0,3h0Z"/>
        <path class="cls-5" d="M239.57,67.51c1.93,0,1.93-3,0-3s-1.93,3,0,3h0Z"/>
        <path class="cls-5" d="M254.88,104.93c1.93,0,1.93-3,0-3s-1.93,3,0,3h0Z"/>
        <path class="cls-5" d="M246.38,149.15c1.93,0,1.93-3,0-3s-1.93,3,0,3h0Z"/>
        <path class="cls-5" d="M297.4,145.75c1.93,0,1.93-3,0-3s-1.93,3,0,3h0Z"/>
        <path class="cls-5" d="M287.2,111.73c1.93,0,1.93-3,0-3s-1.93,3,0,3h0Z"/>
        <path class="cls-5" d="M285.5,86.22c1.93,0,1.93-3,0-3s-1.93,3,0,3h0Z"/>
        <path class="cls-5" d="M278.69,127.04c1.93,0,1.93-3,0-3s-1.93,3,0,3h0Z"/>
        <path class="cls-5" d="M314.41,135.55c1.93,0,1.93-3,0-3s-1.93,3,0,3h0Z"/>
        <path class="cls-5" d="M343.32,155.95c1.93,0,1.93-3,0-3s-1.93,3,0,3h0Z"/>
        <path class="cls-5" d="M346.72,130.44c1.93,0,1.93-3,0-3s-1.93,3,0,3h0Z"/>
        <path class="cls-5" d="M373.94,116.84c1.93,0,1.93-3,0-3s-1.93,3,0,3h0Z"/>
        <path class="cls-5" d="M370.53,89.62c1.93,0,1.93-3,0-3s-1.93,3,0,3h0Z"/>
        <path class="cls-5" d="M379.04,60.71c1.93,0,1.93-3,0-3s-1.93,3,0,3h0Z"/>
        <path class="cls-5" d="M390.94,125.34c1.93,0,1.93-3,0-3s-1.93,3,0,3h0Z"/>
        <path class="cls-5" d="M355.23,186.57c1.93,0,1.93-3,0-3s-1.93,3,0,3h0Z"/>
        <path class="cls-5" d="M319.51,162.76c1.93,0,1.93-3,0-3s-1.93,3,0,3h0Z"/>
        <path class="cls-5" d="M311.01,130.44c1.93,0,1.93-3,0-3s-1.93,3,0,3h0Z"/>
        <path class="cls-5" d="M338.22,120.24c1.93,0,1.93-3,0-3s-1.93,3,0,3h0Z"/>
        <path class="cls-5" d="M346.72,169.56c1.93,0,1.93-3,0-3s-1.93,3,0,3h0Z"/>
      </g>
      <g>
        <path class="cls-5" d="M190.68,131.31c1.93,0,1.93-3,0-3s-1.93,3,0,3h0Z"/>
        <path class="cls-5" d="M199.18,119.4c1.93,0,1.93-3,0-3s-1.93,3,0,3h0Z"/>
        <path class="cls-5" d="M178.77,116c1.93,0,1.93-3,0-3s-1.93,3,0,3h0Z"/>
        <path class="cls-5" d="M166.87,141.51c1.93,0,1.93-3,0-3s-1.93,3,0,3h0Z"/>
        <path class="cls-5" d="M195.78,168.73c1.93,0,1.93-3,0-3s-1.93,3,0,3h0Z"/>
        <path class="cls-5" d="M240,151.72c1.93,0,1.93-3,0-3s-1.93,3,0,3h0Z"/>
        <path class="cls-5" d="M240,124.5c1.93,0,1.93-3,0-3s-1.93,3,0,3h0Z"/>
        <path class="cls-5" d="M236.6,104.1c1.93,0,1.93-3,0-3s-1.93,3,0,3h0Z"/>
        <path class="cls-5" d="M275.72,104.1c1.93,0,1.93-3,0-3s-1.93,3,0,3h0Z"/>
        <path class="cls-5" d="M265.51,129.61c1.93,0,1.93-3,0-3s-1.93,3,0,3h0Z"/>
        <path class="cls-5" d="M258.71,121.1c1.93,0,1.93-3,0-3s-1.93,3,0,3h0Z"/>
        <path class="cls-5" d="M248.51,107.5c1.93,0,1.93-3,0-3s-1.93,3,0,3h0Z"/>
        <path class="cls-5" d="M182.18,100.69c1.93,0,1.93-3,0-3s-1.93,3,0,3h0Z"/>
        <path class="cls-5" d="M153.26,105.8c1.93,0,1.93-3,0-3s-1.93,3,0,3h0Z"/>
        <path class="cls-5" d="M153.26,136.41c1.93,0,1.93-3,0-3s-1.93,3,0,3h0Z"/>
        <path class="cls-5" d="M168.57,173.83c1.93,0,1.93-3,0-3s-1.93,3,0,3h0Z"/>
        <path class="cls-5" d="M160.07,218.05c1.93,0,1.93-3,0-3s-1.93,3,0,3h0Z"/>
        <path class="cls-5" d="M211.09,214.65c1.93,0,1.93-3,0-3s-1.93,3,0,3h0Z"/>
        <path class="cls-5" d="M200.88,180.63c1.93,0,1.93-3,0-3s-1.93,3,0,3h0Z"/>
        <path class="cls-5" d="M199.18,155.12c1.93,0,1.93-3,0-3s-1.93,3,0,3h0Z"/>
        <path class="cls-5" d="M192.38,195.94c1.93,0,1.93-3,0-3s-1.93,3,0,3h0Z"/>
        <path class="cls-5" d="M228.1,204.44c1.93,0,1.93-3,0-3s-1.93,3,0,3h0Z"/>
        <path class="cls-5" d="M257.01,224.85c1.93,0,1.93-3,0-3s-1.93,3,0,3h0Z"/>
        <path class="cls-5" d="M260.41,199.34c1.93,0,1.93-3,0-3s-1.93,3,0,3h0Z"/>
        <path class="cls-5" d="M287.63,185.73c1.93,0,1.93-3,0-3s-1.93,3,0,3h0Z"/>
        <path class="cls-5" d="M284.22,158.52c1.93,0,1.93-3,0-3s-1.93,3,0,3h0Z"/>
        <path class="cls-5" d="M292.73,129.61c1.93,0,1.93-3,0-3s-1.93,3,0,3h0Z"/>
        <path class="cls-5" d="M304.63,194.24c1.93,0,1.93-3,0-3s-1.93,3,0,3h0Z"/>
        <path class="cls-5" d="M268.92,255.47c1.93,0,1.93-3,0-3s-1.93,3,0,3h0Z"/>
        <path class="cls-5" d="M233.2,231.65c1.93,0,1.93-3,0-3s-1.93,3,0,3h0Z"/>
        <path class="cls-5" d="M224.7,199.34c1.93,0,1.93-3,0-3s-1.93,3,0,3h0Z"/>
        <path class="cls-5" d="M251.91,189.13c1.93,0,1.93-3,0-3s-1.93,3,0,3h0Z"/>
        <path class="cls-5" d="M260.41,238.46c1.93,0,1.93-3,0-3s-1.93,3,0,3h0Z"/>
      </g>
      <g>
        <path class="cls-5" d="M106.87,203.2c1.93,0,1.93-3,0-3s-1.93,3,0,3h0Z"/>
        <path class="cls-5" d="M115.38,191.29c1.93,0,1.93-3,0-3s-1.93,3,0,3h0Z"/>
        <path class="cls-5" d="M94.97,187.89c1.93,0,1.93-3,0-3s-1.93,3,0,3h0Z"/>
        <path class="cls-5" d="M83.06,213.4c1.93,0,1.93-3,0-3s-1.93,3,0,3h0Z"/>
        <path class="cls-5" d="M111.98,240.61c1.93,0,1.93-3,0-3s-1.93,3,0,3h0Z"/>
        <path class="cls-5" d="M156.2,223.61c1.93,0,1.93-3,0-3s-1.93,3,0,3h0Z"/>
        <path class="cls-5" d="M156.2,196.39c1.93,0,1.93-3,0-3s-1.93,3,0,3h0Z"/>
        <path class="cls-5" d="M152.79,175.98c1.93,0,1.93-3,0-3s-1.93,3,0,3h0Z"/>
        <path class="cls-5" d="M191.91,175.98c1.93,0,1.93-3,0-3s-1.93,3,0,3h0Z"/>
        <path class="cls-5" d="M181.71,201.49c1.93,0,1.93-3,0-3s-1.93,3,0,3h0Z"/>
        <path class="cls-5" d="M174.9,192.99c1.93,0,1.93-3,0-3s-1.93,3,0,3h0Z"/>
        <path class="cls-5" d="M164.7,179.38c1.93,0,1.93-3,0-3s-1.93,3,0,3h0Z"/>
        <path class="cls-5" d="M98.37,172.58c1.93,0,1.93-3,0-3s-1.93,3,0,3h0Z"/>
        <path class="cls-5" d="M69.46,177.68c1.93,0,1.93-3,0-3s-1.93,3,0,3h0Z"/>
        <path class="cls-5" d="M69.46,208.3c1.93,0,1.93-3,0-3s-1.93,3,0,3h0Z"/>
        <path class="cls-5" d="M84.76,245.72c1.93,0,1.93-3,0-3s-1.93,3,0,3h0Z"/>
        <path class="cls-5" d="M76.26,289.94c1.93,0,1.93-3,0-3s-1.93,3,0,3h0Z"/>
        <path class="cls-5" d="M127.28,286.53c1.93,0,1.93-3,0-3s-1.93,3,0,3h0Z"/>
        <path class="cls-5" d="M117.08,252.52c1.93,0,1.93-3,0-3s-1.93,3,0,3h0Z"/>
        <path class="cls-5" d="M115.38,227.01c1.93,0,1.93-3,0-3s-1.93,3,0,3h0Z"/>
        <path class="cls-5" d="M108.57,267.83c1.93,0,1.93-3,0-3s-1.93,3,0,3h0Z"/>
        <path class="cls-5" d="M144.29,276.33c1.93,0,1.93-3,0-3s-1.93,3,0,3h0Z"/>
        <path class="cls-5" d="M173.2,296.74c1.93,0,1.93-3,0-3s-1.93,3,0,3h0Z"/>
        <path class="cls-5" d="M176.61,271.23c1.93,0,1.93-3,0-3s-1.93,3,0,3h0Z"/>
        <path class="cls-5" d="M203.82,257.62c1.93,0,1.93-3,0-3s-1.93,3,0,3h0Z"/>
        <path class="cls-5" d="M200.42,230.41c1.93,0,1.93-3,0-3s-1.93,3,0,3h0Z"/>
        <path class="cls-5" d="M208.92,201.49c1.93,0,1.93-3,0-3s-1.93,3,0,3h0Z"/>
        <path class="cls-5" d="M220.83,266.12c1.93,0,1.93-3,0-3s-1.93,3,0,3h0Z"/>
        <path class="cls-5" d="M185.11,327.35c1.93,0,1.93-3,0-3s-1.93,3,0,3h0Z"/>
        <path class="cls-5" d="M149.39,303.54c1.93,0,1.93-3,0-3s-1.93,3,0,3h0Z"/>
        <path class="cls-5" d="M140.89,271.23c1.93,0,1.93-3,0-3s-1.93,3,0,3h0Z"/>
        <path class="cls-5" d="M168.1,261.02c1.93,0,1.93-3,0-3s-1.93,3,0,3h0Z"/>
        <path class="cls-5" d="M176.61,310.35c1.93,0,1.93-3,0-3s-1.93,3,0,3h0Z"/>
      </g>
      <g>
        <path class="cls-5" d="M28.1,280.54c1.93,0,1.93-3,0-3s-1.93,3,0,3h0Z"/>
        <path class="cls-5" d="M36.6,268.63c1.93,0,1.93-3,0-3s-1.93,3,0,3h0Z"/>
        <path class="cls-5" d="M16.19,265.23c1.93,0,1.93-3,0-3s-1.93,3,0,3h0Z"/>
        <path class="cls-5" d="M4.28,290.74c1.93,0,1.93-3,0-3s-1.93,3,0,3h0Z"/>
        <path class="cls-5" d="M33.2,317.95c1.93,0,1.93-3,0-3s-1.93,3,0,3h0Z"/>
        <path class="cls-5" d="M77.42,300.95c1.93,0,1.93-3,0-3s-1.93,3,0,3h0Z"/>
        <path class="cls-5" d="M77.42,273.73c1.93,0,1.93-3,0-3s-1.93,3,0,3h0Z"/>
        <path class="cls-5" d="M74.02,253.32c1.93,0,1.93-3,0-3s-1.93,3,0,3h0Z"/>
        <path class="cls-5" d="M113.13,253.32c1.93,0,1.93-3,0-3s-1.93,3,0,3h0Z"/>
        <path class="cls-5" d="M102.93,278.84c1.93,0,1.93-3,0-3s-1.93,3,0,3h0Z"/>
        <path class="cls-5" d="M96.13,270.33c1.93,0,1.93-3,0-3s-1.93,3,0,3h0Z"/>
        <path class="cls-5" d="M85.92,256.73c1.93,0,1.93-3,0-3s-1.93,3,0,3h0Z"/>
        <path class="cls-5" d="M19.59,249.92c1.93,0,1.93-3,0-3s-1.93,3,0,3h0Z"/>
        <path class="cls-5" d="M-9.32,255.02c1.93,0,1.93-3,0-3s-1.93,3,0,3h0Z"/>
        <path class="cls-5" d="M-9.32,285.64c1.93,0,1.93-3,0-3s-1.93,3,0,3h0Z"/>
        <path class="cls-5" d="M5.99,323.06c1.93,0,1.93-3,0-3s-1.93,3,0,3h0Z"/>
        <path class="cls-5" d="M-2.52,367.28c1.93,0,1.93-3,0-3s-1.93,3,0,3h0Z"/>
        <path class="cls-5" d="M48.5,363.87c1.93,0,1.93-3,0-3s-1.93,3,0,3h0Z"/>
        <path class="cls-5" d="M38.3,329.86c1.93,0,1.93-3,0-3s-1.93,3,0,3h0Z"/>
        <path class="cls-5" d="M36.6,304.35c1.93,0,1.93-3,0-3s-1.93,3,0,3h0Z"/>
        <path class="cls-5" d="M29.8,345.17c1.93,0,1.93-3,0-3s-1.93,3,0,3h0Z"/>
        <path class="cls-5" d="M65.51,353.67c1.93,0,1.93-3,0-3s-1.93,3,0,3h0Z"/>
        <path class="cls-5" d="M94.43,374.08c1.93,0,1.93-3,0-3s-1.93,3,0,3h0Z"/>
        <path class="cls-5" d="M97.83,348.57c1.93,0,1.93-3,0-3s-1.93,3,0,3h0Z"/>
        <path class="cls-5" d="M125.04,334.96c1.93,0,1.93-3,0-3s-1.93,3,0,3h0Z"/>
        <path class="cls-5" d="M121.64,307.75c1.93,0,1.93-3,0-3s-1.93,3,0,3h0Z"/>
        <path class="cls-5" d="M130.14,278.84c1.93,0,1.93-3,0-3s-1.93,3,0,3h0Z"/>
        <path class="cls-5" d="M142.05,343.47c1.93,0,1.93-3,0-3s-1.93,3,0,3h0Z"/>
        <path class="cls-5" d="M106.33,404.69c1.93,0,1.93-3,0-3s-1.93,3,0,3h0Z"/>
        <path class="cls-5" d="M70.62,380.88c1.93,0,1.93-3,0-3s-1.93,3,0,3h0Z"/>
        <path class="cls-5" d="M62.11,348.57c1.93,0,1.93-3,0-3s-1.93,3,0,3h0Z"/>
        <path class="cls-5" d="M89.32,338.36c1.93,0,1.93-3,0-3s-1.93,3,0,3h0Z"/>
        <path class="cls-5" d="M97.83,387.69c1.93,0,1.93-3,0-3s-1.93,3,0,3h0Z"/>
      </g>
      <g>
        <path class="cls-5" d="M-48.28,360.3c1.93,0,1.93-3,0-3s-1.93,3,0,3h0Z"/>
        <path class="cls-5" d="M-39.78,348.39c1.93,0,1.93-3,0-3s-1.93,3,0,3h0Z"/>
        <path class="cls-5" d="M-60.19,344.99c1.93,0,1.93-3,0-3s-1.93,3,0,3h0Z"/>
        <path class="cls-5" d="M-72.09,370.5c1.93,0,1.93-3,0-3s-1.93,3,0,3h0Z"/>
        <path class="cls-5" d="M-43.18,397.72c1.93,0,1.93-3,0-3s-1.93,3,0,3h0Z"/>
        <path class="cls-5" d="M1.04,380.71c1.93,0,1.93-3,0-3s-1.93,3,0,3h0Z"/>
        <path class="cls-5" d="M1.04,353.5c1.93,0,1.93-3,0-3s-1.93,3,0,3h0Z"/>
        <path class="cls-5" d="M-2.36,333.09c1.93,0,1.93-3,0-3s-1.93,3,0,3h0Z"/>
        <path class="cls-5" d="M36.76,333.09c1.93,0,1.93-3,0-3s-1.93,3,0,3h0Z"/>
        <path class="cls-5" d="M26.55,358.6c1.93,0,1.93-3,0-3s-1.93,3,0,3h0Z"/>
        <path class="cls-5" d="M19.75,350.09c1.93,0,1.93-3,0-3s-1.93,3,0,3h0Z"/>
        <path class="cls-5" d="M9.54,336.49c1.93,0,1.93-3,0-3s-1.93,3,0,3h0Z"/>
        <path class="cls-5" d="M-56.79,329.69c1.93,0,1.93-3,0-3s-1.93,3,0,3h0Z"/>
        <path class="cls-5" d="M-85.7,334.79c1.93,0,1.93-3,0-3s-1.93,3,0,3h0Z"/>
        <path class="cls-5" d="M-85.7,365.4c1.93,0,1.93-3,0-3s-1.93,3,0,3h0Z"/>
        <path class="cls-5" d="M-70.39,402.82c1.93,0,1.93-3,0-3s-1.93,3,0,3h0Z"/>
        <path class="cls-5" d="M-78.9,447.04c1.93,0,1.93-3,0-3s-1.93,3,0,3h0Z"/>
        <path class="cls-5" d="M-27.87,443.64c1.93,0,1.93-3,0-3s-1.93,3,0,3h0Z"/>
        <path class="cls-5" d="M-38.08,409.62c1.93,0,1.93-3,0-3s-1.93,3,0,3h0Z"/>
        <path class="cls-5" d="M-39.78,384.11c1.93,0,1.93-3,0-3s-1.93,3,0,3h0Z"/>
        <path class="cls-5" d="M-46.58,424.93c1.93,0,1.93-3,0-3s-1.93,3,0,3h0Z"/>
        <path class="cls-5" d="M-10.86,433.43c1.93,0,1.93-3,0-3s-1.93,3,0,3h0Z"/>
        <path class="cls-5" d="M18.05,453.84c1.93,0,1.93-3,0-3s-1.93,3,0,3h0Z"/>
        <path class="cls-5" d="M21.45,428.33c1.93,0,1.93-3,0-3s-1.93,3,0,3h0Z"/>
        <path class="cls-5" d="M48.66,414.72c1.93,0,1.93-3,0-3s-1.93,3,0,3h0Z"/>
        <path class="cls-5" d="M45.26,387.51c1.93,0,1.93-3,0-3s-1.93,3,0,3h0Z"/>
        <path class="cls-5" d="M53.77,358.6c1.93,0,1.93-3,0-3s-1.93,3,0,3h0Z"/>
        <path class="cls-5" d="M65.67,423.23c1.93,0,1.93-3,0-3s-1.93,3,0,3h0Z"/>
        <path class="cls-5" d="M29.95,484.46c1.93,0,1.93-3,0-3s-1.93,3,0,3h0Z"/>
        <path class="cls-5" d="M-5.76,460.65c1.93,0,1.93-3,0-3s-1.93,3,0,3h0Z"/>
        <path class="cls-5" d="M-14.27,428.33c1.93,0,1.93-3,0-3s-1.93,3,0,3h0Z"/>
        <path class="cls-5" d="M12.95,418.13c1.93,0,1.93-3,0-3s-1.93,3,0,3h0Z"/>
        <path class="cls-5" d="M21.45,467.45c1.93,0,1.93-3,0-3s-1.93,3,0,3h0Z"/>
      </g>
      <g>
        <path class="cls-5" d="M-136.81,424.59c1.93,0,1.93-3,0-3s-1.93,3,0,3h0Z"/>
        <path class="cls-5" d="M-128.3,412.68c1.93,0,1.93-3,0-3s-1.93,3,0,3h0Z"/>
        <path class="cls-5" d="M-148.71,409.28c1.93,0,1.93-3,0-3s-1.93,3,0,3h0Z"/>
        <path class="cls-5" d="M-160.62,434.79c1.93,0,1.93-3,0-3s-1.93,3,0,3h0Z"/>
        <path class="cls-5" d="M-131.71,462c1.93,0,1.93-3,0-3s-1.93,3,0,3h0Z"/>
        <path class="cls-5" d="M-87.49,445c1.93,0,1.93-3,0-3s-1.93,3,0,3h0Z"/>
        <path class="cls-5" d="M-87.49,417.78c1.93,0,1.93-3,0-3s-1.93,3,0,3h0Z"/>
        <path class="cls-5" d="M-90.89,397.37c1.93,0,1.93-3,0-3s-1.93,3,0,3h0Z"/>
        <path class="cls-5" d="M-51.77,397.37c1.93,0,1.93-3,0-3s-1.93,3,0,3h0Z"/>
        <path class="cls-5" d="M-61.97,422.89c1.93,0,1.93-3,0-3s-1.93,3,0,3h0Z"/>
        <path class="cls-5" d="M-68.78,414.38c1.93,0,1.93-3,0-3s-1.93,3,0,3h0Z"/>
        <path class="cls-5" d="M-78.98,400.78c1.93,0,1.93-3,0-3s-1.93,3,0,3h0Z"/>
        <path class="cls-5" d="M-145.31,393.97c1.93,0,1.93-3,0-3s-1.93,3,0,3h0Z"/>
        <path class="cls-5" d="M-174.23,399.07c1.93,0,1.93-3,0-3s-1.93,3,0,3h0Z"/>
        <path class="cls-5" d="M-174.23,429.69c1.93,0,1.93-3,0-3s-1.93,3,0,3h0Z"/>
        <path class="cls-5" d="M-158.92,467.11c1.93,0,1.93-3,0-3s-1.93,3,0,3h0Z"/>
        <path class="cls-5" d="M-167.42,511.33c1.93,0,1.93-3,0-3s-1.93,3,0,3h0Z"/>
        <path class="cls-5" d="M-116.4,507.93c1.93,0,1.93-3,0-3s-1.93,3,0,3h0Z"/>
        <path class="cls-5" d="M-126.6,473.91c1.93,0,1.93-3,0-3s-1.93,3,0,3h0Z"/>
        <path class="cls-5" d="M-128.3,448.4c1.93,0,1.93-3,0-3s-1.93,3,0,3h0Z"/>
        <path class="cls-5" d="M-135.11,489.22c1.93,0,1.93-3,0-3s-1.93,3,0,3h0Z"/>
        <path class="cls-5" d="M-99.39,497.72c1.93,0,1.93-3,0-3s-1.93,3,0,3h0Z"/>
        <path class="cls-5" d="M-70.48,518.13c1.93,0,1.93-3,0-3s-1.93,3,0,3h0Z"/>
        <path class="cls-5" d="M-67.08,492.62c1.93,0,1.93-3,0-3s-1.93,3,0,3h0Z"/>
        <path class="cls-5" d="M-39.86,479.01c1.93,0,1.93-3,0-3s-1.93,3,0,3h0Z"/>
        <path class="cls-5" d="M-43.27,451.8c1.93,0,1.93-3,0-3s-1.93,3,0,3h0Z"/>
        <path class="cls-5" d="M-34.76,422.89c1.93,0,1.93-3,0-3s-1.93,3,0,3h0Z"/>
        <path class="cls-5" d="M-22.86,487.52c1.93,0,1.93-3,0-3s-1.93,3,0,3h0Z"/>
        <path class="cls-5" d="M-58.57,548.74c1.93,0,1.93-3,0-3s-1.93,3,0,3h0Z"/>
        <path class="cls-5" d="M-94.29,524.93c1.93,0,1.93-3,0-3s-1.93,3,0,3h0Z"/>
        <path class="cls-5" d="M-102.79,492.62c1.93,0,1.93-3,0-3s-1.93,3,0,3h0Z"/>
        <path class="cls-5" d="M-75.58,482.41c1.93,0,1.93-3,0-3s-1.93,3,0,3h0Z"/>
        <path class="cls-5" d="M-67.08,531.74c1.93,0,1.93-3,0-3s-1.93,3,0,3h0Z"/>
      </g>
      <g>
        <path class="cls-5" d="M-124.04,338.77c1.93,0,1.93-3,0-3s-1.93,3,0,3h0Z"/>
        <path class="cls-5" d="M-115.54,326.87c1.93,0,1.93-3,0-3s-1.93,3,0,3h0Z"/>
        <path class="cls-5" d="M-135.95,323.46c1.93,0,1.93-3,0-3s-1.93,3,0,3h0Z"/>
        <path class="cls-5" d="M-147.85,348.98c1.93,0,1.93-3,0-3s-1.93,3,0,3h0Z"/>
        <path class="cls-5" d="M-118.94,376.19c1.93,0,1.93-3,0-3s-1.93,3,0,3h0Z"/>
        <path class="cls-5" d="M-74.72,359.18c1.93,0,1.93-3,0-3s-1.93,3,0,3h0Z"/>
        <path class="cls-5" d="M-74.72,331.97c1.93,0,1.93-3,0-3s-1.93,3,0,3h0Z"/>
        <path class="cls-5" d="M-78.12,311.56c1.93,0,1.93-3,0-3s-1.93,3,0,3h0Z"/>
        <path class="cls-5" d="M-39,311.56c1.93,0,1.93-3,0-3s-1.93,3,0,3h0Z"/>
        <path class="cls-5" d="M-49.21,337.07c1.93,0,1.93-3,0-3s-1.93,3,0,3h0Z"/>
        <path class="cls-5" d="M-56.01,328.57c1.93,0,1.93-3,0-3s-1.93,3,0,3h0Z"/>
        <path class="cls-5" d="M-66.22,314.96c1.93,0,1.93-3,0-3s-1.93,3,0,3h0Z"/>
        <path class="cls-5" d="M-132.55,308.16c1.93,0,1.93-3,0-3s-1.93,3,0,3h0Z"/>
        <path class="cls-5" d="M-161.46,313.26c1.93,0,1.93-3,0-3s-1.93,3,0,3h0Z"/>
        <path class="cls-5" d="M-161.46,343.87c1.93,0,1.93-3,0-3s-1.93,3,0,3h0Z"/>
        <path class="cls-5" d="M-146.15,381.29c1.93,0,1.93-3,0-3s-1.93,3,0,3h0Z"/>
        <path class="cls-5" d="M-154.66,425.51c1.93,0,1.93-3,0-3s-1.93,3,0,3h0Z"/>
        <path class="cls-5" d="M-103.63,422.11c1.93,0,1.93-3,0-3s-1.93,3,0,3h0Z"/>
        <path class="cls-5" d="M-113.84,388.09c1.93,0,1.93-3,0-3s-1.93,3,0,3h0Z"/>
        <path class="cls-5" d="M-115.54,362.58c1.93,0,1.93-3,0-3s-1.93,3,0,3h0Z"/>
        <path class="cls-5" d="M-122.34,403.4c1.93,0,1.93-3,0-3s-1.93,3,0,3h0Z"/>
        <path class="cls-5" d="M-86.63,411.91c1.93,0,1.93-3,0-3s-1.93,3,0,3h0Z"/>
        <path class="cls-5" d="M-57.71,432.32c1.93,0,1.93-3,0-3s-1.93,3,0,3h0Z"/>
        <path class="cls-5" d="M-54.31,406.8c1.93,0,1.93-3,0-3s-1.93,3,0,3h0Z"/>
        <path class="cls-5" d="M-27.1,393.2c1.93,0,1.93-3,0-3s-1.93,3,0,3h0Z"/>
        <path class="cls-5" d="M-30.5,365.98c1.93,0,1.93-3,0-3s-1.93,3,0,3h0Z"/>
        <path class="cls-5" d="M-22,337.07c1.93,0,1.93-3,0-3s-1.93,3,0,3h0Z"/>
        <path class="cls-5" d="M-10.09,401.7c1.93,0,1.93-3,0-3s-1.93,3,0,3h0Z"/>
        <path class="cls-5" d="M-45.81,462.93c1.93,0,1.93-3,0-3s-1.93,3,0,3h0Z"/>
        <path class="cls-5" d="M-81.52,439.12c1.93,0,1.93-3,0-3s-1.93,3,0,3h0Z"/>
        <path class="cls-5" d="M-90.03,406.8c1.93,0,1.93-3,0-3s-1.93,3,0,3h0Z"/>
        <path class="cls-5" d="M-62.81,396.6c1.93,0,1.93-3,0-3s-1.93,3,0,3h0Z"/>
        <path class="cls-5" d="M-54.31,445.92c1.93,0,1.93-3,0-3s-1.93,3,0,3h0Z"/>
      </g>
      <g>
        <path class="cls-5" d="M-56.97,251.11c1.93,0,1.93-3,0-3s-1.93,3,0,3h0Z"/>
        <path class="cls-5" d="M-48.47,239.2c1.93,0,1.93-3,0-3s-1.93,3,0,3h0Z"/>
        <path class="cls-5" d="M-68.88,235.8c1.93,0,1.93-3,0-3s-1.93,3,0,3h0Z"/>
        <path class="cls-5" d="M-80.78,261.31c1.93,0,1.93-3,0-3s-1.93,3,0,3h0Z"/>
        <path class="cls-5" d="M-51.87,288.52c1.93,0,1.93-3,0-3s-1.93,3,0,3h0Z"/>
        <path class="cls-5" d="M-7.65,271.52c1.93,0,1.93-3,0-3s-1.93,3,0,3h0Z"/>
        <path class="cls-5" d="M-7.65,244.3c1.93,0,1.93-3,0-3s-1.93,3,0,3h0Z"/>
        <path class="cls-5" d="M-11.05,223.89c1.93,0,1.93-3,0-3s-1.93,3,0,3h0Z"/>
        <path class="cls-5" d="M28.07,223.89c1.93,0,1.93-3,0-3s-1.93,3,0,3h0Z"/>
        <path class="cls-5" d="M17.86,249.41c1.93,0,1.93-3,0-3s-1.93,3,0,3h0Z"/>
        <path class="cls-5" d="M11.06,240.9c1.93,0,1.93-3,0-3s-1.93,3,0,3h0Z"/>
        <path class="cls-5" d="M.85,227.3c1.93,0,1.93-3,0-3s-1.93,3,0,3h0Z"/>
        <path class="cls-5" d="M-65.48,220.49c1.93,0,1.93-3,0-3s-1.93,3,0,3h0Z"/>
        <path class="cls-5" d="M-94.39,225.6c1.93,0,1.93-3,0-3s-1.93,3,0,3h0Z"/>
        <path class="cls-5" d="M-94.39,256.21c1.93,0,1.93-3,0-3s-1.93,3,0,3h0Z"/>
        <path class="cls-5" d="M-79.08,293.63c1.93,0,1.93-3,0-3s-1.93,3,0,3h0Z"/>
        <path class="cls-5" d="M-87.59,337.85c1.93,0,1.93-3,0-3s-1.93,3,0,3h0Z"/>
        <path class="cls-5" d="M-36.56,334.45c1.93,0,1.93-3,0-3s-1.93,3,0,3h0Z"/>
        <path class="cls-5" d="M-46.77,300.43c1.93,0,1.93-3,0-3s-1.93,3,0,3h0Z"/>
        <path class="cls-5" d="M-48.47,274.92c1.93,0,1.93-3,0-3s-1.93,3,0,3h0Z"/>
        <path class="cls-5" d="M-55.27,315.74c1.93,0,1.93-3,0-3s-1.93,3,0,3h0Z"/>
        <path class="cls-5" d="M-19.55,324.24c1.93,0,1.93-3,0-3s-1.93,3,0,3h0Z"/>
        <path class="cls-5" d="M9.36,344.65c1.93,0,1.93-3,0-3s-1.93,3,0,3h0Z"/>
        <path class="cls-5" d="M12.76,319.14c1.93,0,1.93-3,0-3s-1.93,3,0,3h0Z"/>
        <path class="cls-5" d="M39.97,305.53c1.93,0,1.93-3,0-3s-1.93,3,0,3h0Z"/>
        <path class="cls-5" d="M36.57,278.32c1.93,0,1.93-3,0-3s-1.93,3,0,3h0Z"/>
        <path class="cls-5" d="M45.08,249.41c1.93,0,1.93-3,0-3s-1.93,3,0,3h0Z"/>
        <path class="cls-5" d="M56.98,314.04c1.93,0,1.93-3,0-3s-1.93,3,0,3h0Z"/>
        <path class="cls-5" d="M21.26,375.26c1.93,0,1.93-3,0-3s-1.93,3,0,3h0Z"/>
        <path class="cls-5" d="M-14.45,351.45c1.93,0,1.93-3,0-3s-1.93,3,0,3h0Z"/>
        <path class="cls-5" d="M-22.96,319.14c1.93,0,1.93-3,0-3s-1.93,3,0,3h0Z"/>
        <path class="cls-5" d="M4.26,308.93c1.93,0,1.93-3,0-3s-1.93,3,0,3h0Z"/>
        <path class="cls-5" d="M12.76,358.26c1.93,0,1.93-3,0-3s-1.93,3,0,3h0Z"/>
      </g>
      <g>
        <path class="cls-5" d="M16.83,168.95c1.93,0,1.93-3,0-3s-1.93,3,0,3h0Z"/>
        <path class="cls-5" d="M25.33,157.04c1.93,0,1.93-3,0-3s-1.93,3,0,3h0Z"/>
        <path class="cls-5" d="M4.92,153.64c1.93,0,1.93-3,0-3s-1.93,3,0,3h0Z"/>
        <path class="cls-5" d="M-6.98,179.15c1.93,0,1.93-3,0-3s-1.93,3,0,3h0Z"/>
        <path class="cls-5" d="M21.93,206.36c1.93,0,1.93-3,0-3s-1.93,3,0,3h0Z"/>
        <path class="cls-5" d="M66.15,189.35c1.93,0,1.93-3,0-3s-1.93,3,0,3h0Z"/>
        <path class="cls-5" d="M66.15,162.14c1.93,0,1.93-3,0-3s-1.93,3,0,3h0Z"/>
        <path class="cls-5" d="M62.75,141.73c1.93,0,1.93-3,0-3s-1.93,3,0,3h0Z"/>
        <path class="cls-5" d="M101.87,141.73c1.93,0,1.93-3,0-3s-1.93,3,0,3h0Z"/>
        <path class="cls-5" d="M91.66,167.24c1.93,0,1.93-3,0-3s-1.93,3,0,3h0Z"/>
        <path class="cls-5" d="M84.86,158.74c1.93,0,1.93-3,0-3s-1.93,3,0,3h0Z"/>
        <path class="cls-5" d="M74.66,145.13c1.93,0,1.93-3,0-3s-1.93,3,0,3h0Z"/>
        <path class="cls-5" d="M8.32,138.33c1.93,0,1.93-3,0-3s-1.93,3,0,3h0Z"/>
        <path class="cls-5" d="M-20.59,143.43c1.93,0,1.93-3,0-3s-1.93,3,0,3h0Z"/>
        <path class="cls-5" d="M-20.59,174.05c1.93,0,1.93-3,0-3s-1.93,3,0,3h0Z"/>
        <path class="cls-5" d="M-5.28,211.47c1.93,0,1.93-3,0-3s-1.93,3,0,3h0Z"/>
        <path class="cls-5" d="M-13.79,255.69c1.93,0,1.93-3,0-3s-1.93,3,0,3h0Z"/>
        <path class="cls-5" d="M37.24,252.28c1.93,0,1.93-3,0-3s-1.93,3,0,3h0Z"/>
        <path class="cls-5" d="M27.03,218.27c1.93,0,1.93-3,0-3s-1.93,3,0,3h0Z"/>
        <path class="cls-5" d="M25.33,192.76c1.93,0,1.93-3,0-3s-1.93,3,0,3h0Z"/>
        <path class="cls-5" d="M18.53,233.58c1.93,0,1.93-3,0-3s-1.93,3,0,3h0Z"/>
        <path class="cls-5" d="M54.25,242.08c1.93,0,1.93-3,0-3s-1.93,3,0,3h0Z"/>
        <path class="cls-5" d="M83.16,262.49c1.93,0,1.93-3,0-3s-1.93,3,0,3h0Z"/>
        <path class="cls-5" d="M86.56,236.98c1.93,0,1.93-3,0-3s-1.93,3,0,3h0Z"/>
        <path class="cls-5" d="M113.77,223.37c1.93,0,1.93-3,0-3s-1.93,3,0,3h0Z"/>
        <path class="cls-5" d="M110.37,196.16c1.93,0,1.93-3,0-3s-1.93,3,0,3h0Z"/>
        <path class="cls-5" d="M118.88,167.24c1.93,0,1.93-3,0-3s-1.93,3,0,3h0Z"/>
        <path class="cls-5" d="M130.78,231.87c1.93,0,1.93-3,0-3s-1.93,3,0,3h0Z"/>
        <path class="cls-5" d="M95.06,293.1c1.93,0,1.93-3,0-3s-1.93,3,0,3h0Z"/>
        <path class="cls-5" d="M59.35,269.29c1.93,0,1.93-3,0-3s-1.93,3,0,3h0Z"/>
        <path class="cls-5" d="M50.84,236.98c1.93,0,1.93-3,0-3s-1.93,3,0,3h0Z"/>
        <path class="cls-5" d="M78.06,226.77c1.93,0,1.93-3,0-3s-1.93,3,0,3h0Z"/>
        <path class="cls-5" d="M86.56,276.1c1.93,0,1.93-3,0-3s-1.93,3,0,3h0Z"/>
      </g>
      <g>
        <path class="cls-5" d="M96.35,92.34c1.93,0,1.93-3,0-3s-1.93,3,0,3h0Z"/>
        <path class="cls-5" d="M104.85,80.43c1.93,0,1.93-3,0-3s-1.93,3,0,3h0Z"/>
        <path class="cls-5" d="M84.44,77.03c1.93,0,1.93-3,0-3s-1.93,3,0,3h0Z"/>
        <path class="cls-5" d="M72.54,102.54c1.93,0,1.93-3,0-3s-1.93,3,0,3h0Z"/>
        <path class="cls-5" d="M101.45,129.76c1.93,0,1.93-3,0-3s-1.93,3,0,3h0Z"/>
        <path class="cls-5" d="M145.67,112.75c1.93,0,1.93-3,0-3s-1.93,3,0,3h0Z"/>
        <path class="cls-5" d="M145.67,85.54c1.93,0,1.93-3,0-3s-1.93,3,0,3h0Z"/>
        <path class="cls-5" d="M142.27,65.13c1.93,0,1.93-3,0-3s-1.93,3,0,3h0Z"/>
        <path class="cls-5" d="M181.39,65.13c1.93,0,1.93-3,0-3s-1.93,3,0,3h0Z"/>
        <path class="cls-5" d="M171.18,90.64c1.93,0,1.93-3,0-3s-1.93,3,0,3h0Z"/>
        <path class="cls-5" d="M164.38,82.13c1.93,0,1.93-3,0-3s-1.93,3,0,3h0Z"/>
        <path class="cls-5" d="M154.18,68.53c1.93,0,1.93-3,0-3s-1.93,3,0,3h0Z"/>
        <path class="cls-5" d="M87.85,61.72c1.93,0,1.93-3,0-3s-1.93,3,0,3h0Z"/>
        <path class="cls-5" d="M58.93,66.83c1.93,0,1.93-3,0-3s-1.93,3,0,3h0Z"/>
        <path class="cls-5" d="M58.93,97.44c1.93,0,1.93-3,0-3s-1.93,3,0,3h0Z"/>
        <path class="cls-5" d="M74.24,134.86c1.93,0,1.93-3,0-3s-1.93,3,0,3h0Z"/>
        <path class="cls-5" d="M65.74,179.08c1.93,0,1.93-3,0-3s-1.93,3,0,3h0Z"/>
        <path class="cls-5" d="M116.76,175.68c1.93,0,1.93-3,0-3s-1.93,3,0,3h0Z"/>
        <path class="cls-5" d="M106.55,141.66c1.93,0,1.93-3,0-3s-1.93,3,0,3h0Z"/>
        <path class="cls-5" d="M104.85,116.15c1.93,0,1.93-3,0-3s-1.93,3,0,3h0Z"/>
        <path class="cls-5" d="M98.05,156.97c1.93,0,1.93-3,0-3s-1.93,3,0,3h0Z"/>
        <path class="cls-5" d="M133.77,165.47c1.93,0,1.93-3,0-3s-1.93,3,0,3h0Z"/>
        <path class="cls-5" d="M162.68,185.88c1.93,0,1.93-3,0-3s-1.93,3,0,3h0Z"/>
        <path class="cls-5" d="M166.08,160.37c1.93,0,1.93-3,0-3s-1.93,3,0,3h0Z"/>
        <path class="cls-5" d="M193.29,146.76c1.93,0,1.93-3,0-3s-1.93,3,0,3h0Z"/>
        <path class="cls-5" d="M189.89,119.55c1.93,0,1.93-3,0-3s-1.93,3,0,3h0Z"/>
        <path class="cls-5" d="M198.4,90.64c1.93,0,1.93-3,0-3s-1.93,3,0,3h0Z"/>
        <path class="cls-5" d="M210.3,155.27c1.93,0,1.93-3,0-3s-1.93,3,0,3h0Z"/>
        <path class="cls-5" d="M174.59,216.5c1.93,0,1.93-3,0-3s-1.93,3,0,3h0Z"/>
        <path class="cls-5" d="M138.87,192.69c1.93,0,1.93-3,0-3s-1.93,3,0,3h0Z"/>
        <path class="cls-5" d="M130.37,160.37c1.93,0,1.93-3,0-3s-1.93,3,0,3h0Z"/>
        <path class="cls-5" d="M157.58,150.17c1.93,0,1.93-3,0-3s-1.93,3,0,3h0Z"/>
        <path class="cls-5" d="M166.08,199.49c1.93,0,1.93-3,0-3s-1.93,3,0,3h0Z"/>
      </g>
      <g>
        <path class="cls-5" d="M182.72,23.64c1.93,0,1.93-3,0-3s-1.93,3,0,3h0Z"/>
        <path class="cls-5" d="M191.22,11.73c1.93,0,1.93-3,0-3s-1.93,3,0,3h0Z"/>
        <path class="cls-5" d="M170.81,8.33c1.93,0,1.93-3,0-3s-1.93,3,0,3h0Z"/>
        <path class="cls-5" d="M158.91,33.84c1.93,0,1.93-3,0-3s-1.93,3,0,3h0Z"/>
        <path class="cls-5" d="M187.82,61.05c1.93,0,1.93-3,0-3s-1.93,3,0,3h0Z"/>
        <path class="cls-5" d="M232.04,44.05c1.93,0,1.93-3,0-3s-1.93,3,0,3h0Z"/>
        <path class="cls-5" d="M232.04,16.83c1.93,0,1.93-3,0-3s-1.93,3,0,3h0Z"/>
        <path class="cls-5" d="M228.64-3.58c1.93,0,1.93-3,0-3s-1.93,3,0,3h0Z"/>
        <path class="cls-5" d="M267.76-3.58c1.93,0,1.93-3,0-3s-1.93,3,0,3h0Z"/>
        <path class="cls-5" d="M257.55,21.94c1.93,0,1.93-3,0-3s-1.93,3,0,3h0Z"/>
        <path class="cls-5" d="M250.75,13.43c1.93,0,1.93-3,0-3s-1.93,3,0,3h0Z"/>
        <path class="cls-5" d="M240.55-.17c1.93,0,1.93-3,0-3s-1.93,3,0,3h0Z"/>
        <path class="cls-5" d="M174.21-6.98c1.93,0,1.93-3,0-3s-1.93,3,0,3h0Z"/>
        <path class="cls-5" d="M145.3-1.87c1.93,0,1.93-3,0-3s-1.93,3,0,3h0Z"/>
        <path class="cls-5" d="M145.3,28.74c1.93,0,1.93-3,0-3s-1.93,3,0,3h0Z"/>
        <path class="cls-5" d="M160.61,66.16c1.93,0,1.93-3,0-3s-1.93,3,0,3h0Z"/>
        <path class="cls-5" d="M152.1,110.38c1.93,0,1.93-3,0-3s-1.93,3,0,3h0Z"/>
        <path class="cls-5" d="M203.13,106.98c1.93,0,1.93-3,0-3s-1.93,3,0,3h0Z"/>
        <path class="cls-5" d="M192.92,72.96c1.93,0,1.93-3,0-3s-1.93,3,0,3h0Z"/>
        <path class="cls-5" d="M191.22,47.45c1.93,0,1.93-3,0-3s-1.93,3,0,3h0Z"/>
        <path class="cls-5" d="M184.42,88.27c1.93,0,1.93-3,0-3s-1.93,3,0,3h0Z"/>
        <path class="cls-5" d="M220.14,96.77c1.93,0,1.93-3,0-3s-1.93,3,0,3h0Z"/>
        <path class="cls-5" d="M249.05,117.18c1.93,0,1.93-3,0-3s-1.93,3,0,3h0Z"/>
        <path class="cls-5" d="M252.45,91.67c1.93,0,1.93-3,0-3s-1.93,3,0,3h0Z"/>
        <path class="cls-5" d="M279.66,78.06c1.93,0,1.93-3,0-3s-1.93,3,0,3h0Z"/>
        <path class="cls-5" d="M276.26,50.85c1.93,0,1.93-3,0-3s-1.93,3,0,3h0Z"/>
        <path class="cls-5" d="M284.77,21.94c1.93,0,1.93-3,0-3s-1.93,3,0,3h0Z"/>
        <path class="cls-5" d="M296.67,86.57c1.93,0,1.93-3,0-3s-1.93,3,0,3h0Z"/>
        <path class="cls-5" d="M260.95,147.8c1.93,0,1.93-3,0-3s-1.93,3,0,3h0Z"/>
        <path class="cls-5" d="M225.24,123.98c1.93,0,1.93-3,0-3s-1.93,3,0,3h0Z"/>
        <path class="cls-5" d="M216.73,91.67c1.93,0,1.93-3,0-3s-1.93,3,0,3h0Z"/>
        <path class="cls-5" d="M243.95,81.46c1.93,0,1.93-3,0-3s-1.93,3,0,3h0Z"/>
        <path class="cls-5" d="M252.45,130.79c1.93,0,1.93-3,0-3s-1.93,3,0,3h0Z"/>
      </g>
      <g>
        <path class="cls-5" d="M132.47,54.35c1.93,0,1.93-3,0-3s-1.93,3,0,3h0Z"/>
        <path class="cls-5" d="M140.97,42.44c1.93,0,1.93-3,0-3s-1.93,3,0,3h0Z"/>
        <path class="cls-5" d="M120.57,39.04c1.93,0,1.93-3,0-3s-1.93,3,0,3h0Z"/>
        <path class="cls-5" d="M108.66,64.55c1.93,0,1.93-3,0-3s-1.93,3,0,3h0Z"/>
        <path class="cls-5" d="M137.57,91.76c1.93,0,1.93-3,0-3s-1.93,3,0,3h0Z"/>
        <path class="cls-5" d="M181.79,74.76c1.93,0,1.93-3,0-3s-1.93,3,0,3h0Z"/>
        <path class="cls-5" d="M181.79,47.54c1.93,0,1.93-3,0-3s-1.93,3,0,3h0Z"/>
        <path class="cls-5" d="M178.39,27.13c1.93,0,1.93-3,0-3s-1.93,3,0,3h0Z"/>
        <path class="cls-5" d="M217.51,27.13c1.93,0,1.93-3,0-3s-1.93,3,0,3h0Z"/>
        <path class="cls-5" d="M207.31,52.65c1.93,0,1.93-3,0-3s-1.93,3,0,3h0Z"/>
        <path class="cls-5" d="M200.5,44.14c1.93,0,1.93-3,0-3s-1.93,3,0,3h0Z"/>
        <path class="cls-5" d="M190.3,30.54c1.93,0,1.93-3,0-3s-1.93,3,0,3h0Z"/>
        <path class="cls-5" d="M123.97,23.73c1.93,0,1.93-3,0-3s-1.93,3,0,3h0Z"/>
        <path class="cls-5" d="M95.05,28.83c1.93,0,1.93-3,0-3s-1.93,3,0,3h0Z"/>
        <path class="cls-5" d="M95.05,59.45c1.93,0,1.93-3,0-3s-1.93,3,0,3h0Z"/>
        <path class="cls-5" d="M110.36,96.87c1.93,0,1.93-3,0-3s-1.93,3,0,3h0Z"/>
        <path class="cls-5" d="M101.86,141.09c1.93,0,1.93-3,0-3s-1.93,3,0,3h0Z"/>
        <path class="cls-5" d="M152.88,137.68c1.93,0,1.93-3,0-3s-1.93,3,0,3h0Z"/>
        <path class="cls-5" d="M142.68,103.67c1.93,0,1.93-3,0-3s-1.93,3,0,3h0Z"/>
        <path class="cls-5" d="M140.97,78.16c1.93,0,1.93-3,0-3s-1.93,3,0,3h0Z"/>
        <path class="cls-5" d="M134.17,118.98c1.93,0,1.93-3,0-3s-1.93,3,0,3h0Z"/>
        <path class="cls-5" d="M169.89,127.48c1.93,0,1.93-3,0-3s-1.93,3,0,3h0Z"/>
        <path class="cls-5" d="M198.8,147.89c1.93,0,1.93-3,0-3s-1.93,3,0,3h0Z"/>
        <path class="cls-5" d="M202.2,122.38c1.93,0,1.93-3,0-3s-1.93,3,0,3h0Z"/>
        <path class="cls-5" d="M229.42,108.77c1.93,0,1.93-3,0-3s-1.93,3,0,3h0Z"/>
        <path class="cls-5" d="M226.01,81.56c1.93,0,1.93-3,0-3s-1.93,3,0,3h0Z"/>
        <path class="cls-5" d="M234.52,52.65c1.93,0,1.93-3,0-3s-1.93,3,0,3h0Z"/>
        <path class="cls-5" d="M246.42,117.28c1.93,0,1.93-3,0-3s-1.93,3,0,3h0Z"/>
        <path class="cls-5" d="M210.71,178.5c1.93,0,1.93-3,0-3s-1.93,3,0,3h0Z"/>
        <path class="cls-5" d="M174.99,154.69c1.93,0,1.93-3,0-3s-1.93,3,0,3h0Z"/>
        <path class="cls-5" d="M166.49,122.38c1.93,0,1.93-3,0-3s-1.93,3,0,3h0Z"/>
        <path class="cls-5" d="M193.7,112.17c1.93,0,1.93-3,0-3s-1.93,3,0,3h0Z"/>
        <path class="cls-5" d="M202.2,161.5c1.93,0,1.93-3,0-3s-1.93,3,0,3h0Z"/>
      </g>
      <g>
        <path class="cls-5" d="M40.17,114.99c1.93,0,1.93-3,0-3s-1.93,3,0,3h0Z"/>
        <path class="cls-5" d="M48.67,103.08c1.93,0,1.93-3,0-3s-1.93,3,0,3h0Z"/>
        <path class="cls-5" d="M28.26,99.68c1.93,0,1.93-3,0-3s-1.93,3,0,3h0Z"/>
        <path class="cls-5" d="M16.36,125.19c1.93,0,1.93-3,0-3s-1.93,3,0,3h0Z"/>
        <path class="cls-5" d="M45.27,152.4c1.93,0,1.93-3,0-3s-1.93,3,0,3h0Z"/>
        <path class="cls-5" d="M89.49,135.4c1.93,0,1.93-3,0-3s-1.93,3,0,3h0Z"/>
        <path class="cls-5" d="M89.49,108.18c1.93,0,1.93-3,0-3s-1.93,3,0,3h0Z"/>
        <path class="cls-5" d="M86.09,87.77c1.93,0,1.93-3,0-3s-1.93,3,0,3h0Z"/>
        <path class="cls-5" d="M125.21,87.77c1.93,0,1.93-3,0-3s-1.93,3,0,3h0Z"/>
        <path class="cls-5" d="M115,113.29c1.93,0,1.93-3,0-3s-1.93,3,0,3h0Z"/>
        <path class="cls-5" d="M108.2,104.78c1.93,0,1.93-3,0-3s-1.93,3,0,3h0Z"/>
        <path class="cls-5" d="M97.99,91.18c1.93,0,1.93-3,0-3s-1.93,3,0,3h0Z"/>
        <path class="cls-5" d="M31.66,84.37c1.93,0,1.93-3,0-3s-1.93,3,0,3h0Z"/>
        <path class="cls-5" d="M2.75,89.47c1.93,0,1.93-3,0-3s-1.93,3,0,3h0Z"/>
        <path class="cls-5" d="M2.75,120.09c1.93,0,1.93-3,0-3s-1.93,3,0,3h0Z"/>
        <path class="cls-5" d="M18.06,157.51c1.93,0,1.93-3,0-3s-1.93,3,0,3h0Z"/>
        <path class="cls-5" d="M9.55,201.73c1.93,0,1.93-3,0-3s-1.93,3,0,3h0Z"/>
        <path class="cls-5" d="M60.58,198.32c1.93,0,1.93-3,0-3s-1.93,3,0,3h0Z"/>
        <path class="cls-5" d="M50.37,164.31c1.93,0,1.93-3,0-3s-1.93,3,0,3h0Z"/>
        <path class="cls-5" d="M48.67,138.8c1.93,0,1.93-3,0-3s-1.93,3,0,3h0Z"/>
        <path class="cls-5" d="M41.87,179.62c1.93,0,1.93-3,0-3s-1.93,3,0,3h0Z"/>
        <path class="cls-5" d="M77.59,188.12c1.93,0,1.93-3,0-3s-1.93,3,0,3h0Z"/>
        <path class="cls-5" d="M106.5,208.53c1.93,0,1.93-3,0-3s-1.93,3,0,3h0Z"/>
        <path class="cls-5" d="M109.9,183.02c1.93,0,1.93-3,0-3s-1.93,3,0,3h0Z"/>
        <path class="cls-5" d="M137.11,169.41c1.93,0,1.93-3,0-3s-1.93,3,0,3h0Z"/>
        <path class="cls-5" d="M133.71,142.2c1.93,0,1.93-3,0-3s-1.93,3,0,3h0Z"/>
        <path class="cls-5" d="M142.22,113.29c1.93,0,1.93-3,0-3s-1.93,3,0,3h0Z"/>
        <path class="cls-5" d="M154.12,177.92c1.93,0,1.93-3,0-3s-1.93,3,0,3h0Z"/>
        <path class="cls-5" d="M118.4,239.14c1.93,0,1.93-3,0-3s-1.93,3,0,3h0Z"/>
        <path class="cls-5" d="M82.69,215.33c1.93,0,1.93-3,0-3s-1.93,3,0,3h0Z"/>
        <path class="cls-5" d="M74.18,183.02c1.93,0,1.93-3,0-3s-1.93,3,0,3h0Z"/>
        <path class="cls-5" d="M101.4,172.81c1.93,0,1.93-3,0-3s-1.93,3,0,3h0Z"/>
        <path class="cls-5" d="M109.9,222.14c1.93,0,1.93-3,0-3s-1.93,3,0,3h0Z"/>
      </g>
      <g>
        <path class="cls-5" d="M-22.4,116.39c1.93,0,1.93-3,0-3s-1.93,3,0,3h0Z"/>
        <path class="cls-5" d="M-13.9,104.49c1.93,0,1.93-3,0-3s-1.93,3,0,3h0Z"/>
        <path class="cls-5" d="M-34.31,101.09c1.93,0,1.93-3,0-3s-1.93,3,0,3h0Z"/>
        <path class="cls-5" d="M-46.21,126.6c1.93,0,1.93-3,0-3s-1.93,3,0,3h0Z"/>
        <path class="cls-5" d="M-17.3,153.81c1.93,0,1.93-3,0-3s-1.93,3,0,3h0Z"/>
        <path class="cls-5" d="M26.92,136.8c1.93,0,1.93-3,0-3s-1.93,3,0,3h0Z"/>
        <path class="cls-5" d="M26.92,109.59c1.93,0,1.93-3,0-3s-1.93,3,0,3h0Z"/>
        <path class="cls-5" d="M23.52,89.18c1.93,0,1.93-3,0-3s-1.93,3,0,3h0Z"/>
        <path class="cls-5" d="M62.64,89.18c1.93,0,1.93-3,0-3s-1.93,3,0,3h0Z"/>
        <path class="cls-5" d="M52.43,114.69c1.93,0,1.93-3,0-3s-1.93,3,0,3h0Z"/>
        <path class="cls-5" d="M45.63,106.19c1.93,0,1.93-3,0-3s-1.93,3,0,3h0Z"/>
        <path class="cls-5" d="M35.42,92.58c1.93,0,1.93-3,0-3s-1.93,3,0,3h0Z"/>
        <path class="cls-5" d="M-30.91,85.78c1.93,0,1.93-3,0-3s-1.93,3,0,3h0Z"/>
        <path class="cls-5" d="M-59.82,90.88c1.93,0,1.93-3,0-3s-1.93,3,0,3h0Z"/>
        <path class="cls-5" d="M-59.82,121.5c1.93,0,1.93-3,0-3s-1.93,3,0,3h0Z"/>
        <path class="cls-5" d="M-44.51,158.91c1.93,0,1.93-3,0-3s-1.93,3,0,3h0Z"/>
        <path class="cls-5" d="M-53.02,203.13c1.93,0,1.93-3,0-3s-1.93,3,0,3h0Z"/>
        <path class="cls-5" d="M-1.99,199.73c1.93,0,1.93-3,0-3s-1.93,3,0,3h0Z"/>
        <path class="cls-5" d="M-12.2,165.72c1.93,0,1.93-3,0-3s-1.93,3,0,3h0Z"/>
        <path class="cls-5" d="M-13.9,140.21c1.93,0,1.93-3,0-3s-1.93,3,0,3h0Z"/>
        <path class="cls-5" d="M-20.7,181.02c1.93,0,1.93-3,0-3s-1.93,3,0,3h0Z"/>
        <path class="cls-5" d="M15.01,189.53c1.93,0,1.93-3,0-3s-1.93,3,0,3h0Z"/>
        <path class="cls-5" d="M43.93,209.94c1.93,0,1.93-3,0-3s-1.93,3,0,3h0Z"/>
        <path class="cls-5" d="M47.33,184.43c1.93,0,1.93-3,0-3s-1.93,3,0,3h0Z"/>
        <path class="cls-5" d="M74.54,170.82c1.93,0,1.93-3,0-3s-1.93,3,0,3h0Z"/>
        <path class="cls-5" d="M71.14,143.61c1.93,0,1.93-3,0-3s-1.93,3,0,3h0Z"/>
        <path class="cls-5" d="M79.64,114.69c1.93,0,1.93-3,0-3s-1.93,3,0,3h0Z"/>
        <path class="cls-5" d="M91.55,179.32c1.93,0,1.93-3,0-3s-1.93,3,0,3h0Z"/>
        <path class="cls-5" d="M55.83,240.55c1.93,0,1.93-3,0-3s-1.93,3,0,3h0Z"/>
        <path class="cls-5" d="M20.12,216.74c1.93,0,1.93-3,0-3s-1.93,3,0,3h0Z"/>
        <path class="cls-5" d="M11.61,184.43c1.93,0,1.93-3,0-3s-1.93,3,0,3h0Z"/>
        <path class="cls-5" d="M38.83,174.22c1.93,0,1.93-3,0-3s-1.93,3,0,3h0Z"/>
        <path class="cls-5" d="M47.33,223.54c1.93,0,1.93-3,0-3s-1.93,3,0,3h0Z"/>
      </g>
      <g>
        <path class="cls-5" d="M28.92,19.24c1.93,0,1.93-3,0-3s-1.93,3,0,3h0Z"/>
        <path class="cls-5" d="M37.42,7.34c1.93,0,1.93-3,0-3s-1.93,3,0,3h0Z"/>
        <path class="cls-5" d="M17.02,3.94c1.93,0,1.93-3,0-3s-1.93,3,0,3h0Z"/>
        <path class="cls-5" d="M5.11,29.45c1.93,0,1.93-3,0-3s-1.93,3,0,3h0Z"/>
        <path class="cls-5" d="M34.02,56.66c1.93,0,1.93-3,0-3s-1.93,3,0,3h0Z"/>
        <path class="cls-5" d="M78.24,39.65c1.93,0,1.93-3,0-3s-1.93,3,0,3h0Z"/>
        <path class="cls-5" d="M78.24,12.44c1.93,0,1.93-3,0-3s-1.93,3,0,3h0Z"/>
        <path class="cls-5" d="M74.84-7.97c1.93,0,1.93-3,0-3s-1.93,3,0,3h0Z"/>
        <path class="cls-5" d="M113.96-7.97c1.93,0,1.93-3,0-3s-1.93,3,0,3h0Z"/>
        <path class="cls-5" d="M103.76,17.54c1.93,0,1.93-3,0-3s-1.93,3,0,3h0Z"/>
        <path class="cls-5" d="M96.95,9.04c1.93,0,1.93-3,0-3s-1.93,3,0,3h0Z"/>
        <path class="cls-5" d="M86.75-4.57c1.93,0,1.93-3,0-3s-1.93,3,0,3h0Z"/>
        <path class="cls-5" d="M20.42-11.37c1.93,0,1.93-3,0-3s-1.93,3,0,3h0Z"/>
        <path class="cls-5" d="M-8.5-6.27c1.93,0,1.93-3,0-3s-1.93,3,0,3h0Z"/>
        <path class="cls-5" d="M-8.5,24.35c1.93,0,1.93-3,0-3s-1.93,3,0,3h0Z"/>
        <path class="cls-5" d="M6.81,61.76c1.93,0,1.93-3,0-3s-1.93,3,0,3h0Z"/>
        <path class="cls-5" d="M-1.69,105.98c1.93,0,1.93-3,0-3s-1.93,3,0,3h0Z"/>
        <path class="cls-5" d="M49.33,102.58c1.93,0,1.93-3,0-3s-1.93,3,0,3h0Z"/>
        <path class="cls-5" d="M39.13,68.57c1.93,0,1.93-3,0-3s-1.93,3,0,3h0Z"/>
        <path class="cls-5" d="M37.42,43.06c1.93,0,1.93-3,0-3s-1.93,3,0,3h0Z"/>
        <path class="cls-5" d="M30.62,83.87c1.93,0,1.93-3,0-3s-1.93,3,0,3h0Z"/>
        <path class="cls-5" d="M66.34,92.38c1.93,0,1.93-3,0-3s-1.93,3,0,3h0Z"/>
        <path class="cls-5" d="M95.25,112.79c1.93,0,1.93-3,0-3s-1.93,3,0,3h0Z"/>
        <path class="cls-5" d="M98.65,87.28c1.93,0,1.93-3,0-3s-1.93,3,0,3h0Z"/>
        <path class="cls-5" d="M125.87,73.67c1.93,0,1.93-3,0-3s-1.93,3,0,3h0Z"/>
        <path class="cls-5" d="M122.46,46.46c1.93,0,1.93-3,0-3s-1.93,3,0,3h0Z"/>
        <path class="cls-5" d="M130.97,17.54c1.93,0,1.93-3,0-3s-1.93,3,0,3h0Z"/>
        <path class="cls-5" d="M142.87,82.17c1.93,0,1.93-3,0-3s-1.93,3,0,3h0Z"/>
        <path class="cls-5" d="M107.16,143.4c1.93,0,1.93-3,0-3s-1.93,3,0,3h0Z"/>
        <path class="cls-5" d="M71.44,119.59c1.93,0,1.93-3,0-3s-1.93,3,0,3h0Z"/>
        <path class="cls-5" d="M62.94,87.28c1.93,0,1.93-3,0-3s-1.93,3,0,3h0Z"/>
        <path class="cls-5" d="M90.15,77.07c1.93,0,1.93-3,0-3s-1.93,3,0,3h0Z"/>
        <path class="cls-5" d="M98.65,126.39c1.93,0,1.93-3,0-3s-1.93,3,0,3h0Z"/>
      </g>
      <g>
        <path class="cls-5" d="M48.32-30.42c1.93,0,1.93-3,0-3s-1.93,3,0,3h0Z"/>
        <path class="cls-5" d="M56.83-42.32c1.93,0,1.93-3,0-3s-1.93,3,0,3h0Z"/>
        <path class="cls-5" d="M36.42-45.73c1.93,0,1.93-3,0-3s-1.93,3,0,3h0Z"/>
        <path class="cls-5" d="M24.51-20.21c1.93,0,1.93-3,0-3s-1.93,3,0,3h0Z"/>
        <path class="cls-5" d="M53.42,7c1.93,0,1.93-3,0-3s-1.93,3,0,3h0Z"/>
        <path class="cls-5" d="M97.64-10.01c1.93,0,1.93-3,0-3s-1.93,3,0,3h0Z"/>
        <path class="cls-5" d="M97.64-37.22c1.93,0,1.93-3,0-3s-1.93,3,0,3h0Z"/>
        <path class="cls-5" d="M94.24-57.63c1.93,0,1.93-3,0-3s-1.93,3,0,3h0Z"/>
        <path class="cls-5" d="M133.36-57.63c1.93,0,1.93-3,0-3s-1.93,3,0,3h0Z"/>
        <path class="cls-5" d="M123.16-32.12c1.93,0,1.93-3,0-3s-1.93,3,0,3h0Z"/>
        <path class="cls-5" d="M116.35-40.62c1.93,0,1.93-3,0-3s-1.93,3,0,3h0Z"/>
        <path class="cls-5" d="M106.15-54.23c1.93,0,1.93-3,0-3s-1.93,3,0,3h0Z"/>
        <path class="cls-5" d="M39.82-61.03c1.93,0,1.93-3,0-3s-1.93,3,0,3h0Z"/>
        <path class="cls-5" d="M10.9-55.93c1.93,0,1.93-3,0-3s-1.93,3,0,3h0Z"/>
        <path class="cls-5" d="M10.9-25.32c1.93,0,1.93-3,0-3s-1.93,3,0,3h0Z"/>
        <path class="cls-5" d="M26.21,12.1c1.93,0,1.93-3,0-3s-1.93,3,0,3h0Z"/>
        <path class="cls-5" d="M17.71,56.32c1.93,0,1.93-3,0-3s-1.93,3,0,3h0Z"/>
        <path class="cls-5" d="M68.73,52.92c1.93,0,1.93-3,0-3s-1.93,3,0,3h0Z"/>
        <path class="cls-5" d="M58.53,18.9c1.93,0,1.93-3,0-3s-1.93,3,0,3h0Z"/>
        <path class="cls-5" d="M56.83-6.61c1.93,0,1.93-3,0-3s-1.93,3,0,3h0Z"/>
        <path class="cls-5" d="M50.02,34.21c1.93,0,1.93-3,0-3s-1.93,3,0,3h0Z"/>
        <path class="cls-5" d="M85.74,42.72c1.93,0,1.93-3,0-3s-1.93,3,0,3h0Z"/>
        <path class="cls-5" d="M114.65,63.12c1.93,0,1.93-3,0-3s-1.93,3,0,3h0Z"/>
        <path class="cls-5" d="M118.05,37.61c1.93,0,1.93-3,0-3s-1.93,3,0,3h0Z"/>
        <path class="cls-5" d="M145.27,24.01c1.93,0,1.93-3,0-3s-1.93,3,0,3h0Z"/>
        <path class="cls-5" d="M141.86-3.21c1.93,0,1.93-3,0-3s-1.93,3,0,3h0Z"/>
        <path class="cls-5" d="M150.37-32.12c1.93,0,1.93-3,0-3s-1.93,3,0,3h0Z"/>
        <path class="cls-5" d="M162.27,32.51c1.93,0,1.93-3,0-3s-1.93,3,0,3h0Z"/>
        <path class="cls-5" d="M126.56,93.74c1.93,0,1.93-3,0-3s-1.93,3,0,3h0Z"/>
        <path class="cls-5" d="M90.84,69.93c1.93,0,1.93-3,0-3s-1.93,3,0,3h0Z"/>
        <path class="cls-5" d="M82.34,37.61c1.93,0,1.93-3,0-3s-1.93,3,0,3h0Z"/>
        <path class="cls-5" d="M109.55,27.41c1.93,0,1.93-3,0-3s-1.93,3,0,3h0Z"/>
        <path class="cls-5" d="M118.05,76.73c1.93,0,1.93-3,0-3s-1.93,3,0,3h0Z"/>
      </g>
      <g>
        <path class="cls-5" d="M-55.29,7.18c1.93,0,1.93-3,0-3s-1.93,3,0,3h0Z"/>
        <path class="cls-5" d="M-46.79-4.73c1.93,0,1.93-3,0-3s-1.93,3,0,3h0Z"/>
        <path class="cls-5" d="M-67.2-8.13c1.93,0,1.93-3,0-3s-1.93,3,0,3h0Z"/>
        <path class="cls-5" d="M-79.1,17.38c1.93,0,1.93-3,0-3s-1.93,3,0,3h0Z"/>
        <path class="cls-5" d="M-50.19,44.59c1.93,0,1.93-3,0-3s-1.93,3,0,3h0Z"/>
        <path class="cls-5" d="M-5.97,27.59c1.93,0,1.93-3,0-3s-1.93,3,0,3h0Z"/>
        <path class="cls-5" d="M-5.97.37c1.93,0,1.93-3,0-3S-7.9.37-5.97.37h0Z"/>
        <path class="cls-5" d="M-9.37-20.04c1.93,0,1.93-3,0-3s-1.93,3,0,3h0Z"/>
        <path class="cls-5" d="M29.75-20.04c1.93,0,1.93-3,0-3s-1.93,3,0,3h0Z"/>
        <path class="cls-5" d="M19.54,5.48c1.93,0,1.93-3,0-3s-1.93,3,0,3h0Z"/>
        <path class="cls-5" d="M12.74-3.03c1.93,0,1.93-3,0-3s-1.93,3,0,3h0Z"/>
        <path class="cls-5" d="M2.54-16.63c1.93,0,1.93-3,0-3s-1.93,3,0,3h0Z"/>
        <path class="cls-5" d="M-63.79-23.44c1.93,0,1.93-3,0-3s-1.93,3,0,3h0Z"/>
        <path class="cls-5" d="M-92.71-18.33c1.93,0,1.93-3,0-3s-1.93,3,0,3h0Z"/>
        <path class="cls-5" d="M-92.71,12.28c1.93,0,1.93-3,0-3s-1.93,3,0,3h0Z"/>
        <path class="cls-5" d="M-77.4,49.7c1.93,0,1.93-3,0-3s-1.93,3,0,3h0Z"/>
        <path class="cls-5" d="M-85.9,93.92c1.93,0,1.93-3,0-3s-1.93,3,0,3h0Z"/>
        <path class="cls-5" d="M-34.88,90.52c1.93,0,1.93-3,0-3s-1.93,3,0,3h0Z"/>
        <path class="cls-5" d="M-45.09,56.5c1.93,0,1.93-3,0-3s-1.93,3,0,3h0Z"/>
        <path class="cls-5" d="M-46.79,30.99c1.93,0,1.93-3,0-3s-1.93,3,0,3h0Z"/>
        <path class="cls-5" d="M-53.59,71.81c1.93,0,1.93-3,0-3s-1.93,3,0,3h0Z"/>
        <path class="cls-5" d="M-17.87,80.31c1.93,0,1.93-3,0-3s-1.93,3,0,3h0Z"/>
        <path class="cls-5" d="M11.04,100.72c1.93,0,1.93-3,0-3s-1.93,3,0,3h0Z"/>
        <path class="cls-5" d="M14.44,75.21c1.93,0,1.93-3,0-3s-1.93,3,0,3h0Z"/>
        <path class="cls-5" d="M41.65,61.6c1.93,0,1.93-3,0-3s-1.93,3,0,3h0Z"/>
        <path class="cls-5" d="M38.25,34.39c1.93,0,1.93-3,0-3s-1.93,3,0,3h0Z"/>
        <path class="cls-5" d="M46.76,5.48c1.93,0,1.93-3,0-3s-1.93,3,0,3h0Z"/>
        <path class="cls-5" d="M58.66,70.11c1.93,0,1.93-3,0-3s-1.93,3,0,3h0Z"/>
        <path class="cls-5" d="M22.95,131.33c1.93,0,1.93-3,0-3s-1.93,3,0,3h0Z"/>
        <path class="cls-5" d="M-12.77,107.52c1.93,0,1.93-3,0-3s-1.93,3,0,3h0Z"/>
        <path class="cls-5" d="M-21.27,75.21c1.93,0,1.93-3,0-3s-1.93,3,0,3h0Z"/>
        <path class="cls-5" d="M5.94,65c1.93,0,1.93-3,0-3s-1.93,3,0,3h0Z"/>
        <path class="cls-5" d="M14.44,114.33c1.93,0,1.93-3,0-3s-1.93,3,0,3h0Z"/>
      </g>
    </g>
  </g>
  <g id="Layer_2" data-name="Layer 2">
    <ellipse class="cls-3" cx="750.48" cy="802.61" rx="696.19" ry="689.39"/>
    <path class="cls-5" d="M177.74,410.55c46.3-36.12,104.47-74.68,175.04-108.54,94.8-45.49,174.47-64.5,206.65-71.43,38.63-8.33,108.99-20.86,198.14-20.41,12.15.06,135.08,1.36,244.91,34.87,59.57,18.17,111.4,44.22,111.4,44.22,11.47,5.77,20.83,10.88,27.21,14.46.06-23.8.13-47.59.19-71.39-39.87-26.32-77.05-45.31-108.05-59.01-54.09-23.91-98.17-35.59-114.52-39.69-25.44-6.37-62.87-14.2-108.85-18.14-46.47-3.98-119.66-5.53-206.93,13.32-13.39,2.89-30.99,7.1-51.45,13.18-91.03,27.04-156.11,66.48-186.9,86.81,0,0-75.47,49.83-141.21,123.54-12.18,13.65-22.87,27.21-22.87,27.21-9.56,12.12-17.18,22.81-22.77,30.99Z"/>
    <path class="cls-5" d="M55.76,758.36c3.79-5.35,9.24-12.79,16.16-21.35,7.28-9.01,39.67-48.36,96.38-88.06,10.08-7.05,43.07-29.62,90.71-51.02,20.91-9.39,58.68-24.87,108.09-36.28,67.21-15.53,120.01-15.24,162.14-14.74,72.73.86,128.3,11.23,150.8,15.87,43.86,9.04,82.16,21.05,105.45,28.35,24.52,7.68,45,14.88,60.09,20.41,26.87-25.33,58.51-52.39,95.24-79.37,35.09-25.78,68.83-47.07,99.78-64.63-42.32-16.14-90.51-31.56-144.19-44.03-35.39-8.22-62.76-12.69-82.39-15.87-38.98-6.32-88.4-14.16-151.94-15.87-46.8-1.26-82.68,1.31-94.87,2.27-113.75,8.98-197.35,38.67-220.72,47.34-51.86,19.23-89.46,39.53-116.79,54.43-57.94,31.58-95.35,59.31-105.45,66.9-15.48,11.63-28.07,22-37.13,29.72-5.72,18.3-10.04,34.68-13.32,48.47-1.06,4.45-5.84,24.71-10.35,51.73-1.38,8.27-3.24,19.5-4.96,34.58-1.4,12.25-2.23,22.85-2.74,31.18Z"/>
    <path class="cls-5" d="M1164.58,401.77c-31.22,12.99-57.69,25.84-78.8,36.85-48.48,25.29-83.99,48.88-100.35,60.09-21.18,14.52-38.6,27.73-51.59,37.98,19.56,12.12,44.35,28.47,72,49.32,36.1,27.23,61.76,50.6,83.91,70.87,18.02,16.49,40.12,37.55,64.63,62.93,3.4-106.02,6.8-212.03,10.2-318.05Z"/>
    <path class="cls-5" d="M802.31,654.99c12.28,6.52,29.66,15.91,50.27,27.59,40.28,22.83,100.54,57.2,170.08,107.72,32.28,23.45,73.41,55.35,119.06,96.38.38,41.2.76,82.39,1.13,123.59h-232.44c-32.11-12.34-60.31-18.94-81.64-22.68-34.13-5.98-61.37-6.52-79.37-6.8-18.86-.3-34.77.37-46.49,1.13-19.28-38.55-38.55-77.1-57.83-115.65,11.89-29.98,30.01-67.35,57.83-106.58,34.09-48.07,70.8-82.07,99.4-104.69Z"/>
    <path class="cls-2" d="M55.65,838.28c10.54-8.67,21.54-15.67,32.54-24.67,8-5,15-9,23-15,3-2,5-2,8-4,47-30,94-50,149-60,75-14,145-26,219-22,79,3,156,23,228.76,52.56"/>
    <path class="cls-2" d="M629.21,912.5c-37.37-4.8-74.74-9.61-112.11-14.41-37.37-4.8-74.74-9.61-112.11-14.41-37.26-4.79-74.51-9.58-111.77-14.37-37.26-4.79-74.51-9.58-111.77-14.37-37.26-4.79-74.51-9.58-111.77-14.37-4.63-.59-9.26-1.19-13.88-1.78"/>
    <path class="cls-3" d="M465.93,711.69c-162.46,0-308.66,48.75-410.47,126.51,0,.12.01.24,0,.37v.31c0,.4-.05.78-.14,1.15.02.15.03.29.04.44,1.04.07,2.09.52,3.03,1.49,3.85,3.96,6.48,8.67,7.52,14.11.51,2.66-.71,5.39-3.49,6.15-.87.24-1.84.2-2.75-.07.43,2.85.77,5.72,1.12,8.57.76,6.32,1.57,11.25,2.94,18.76,1.46,8.02,2.8,16.06,3.34,24.18.11.15.23.29.33.46,10.37,17.89,10.69,38.89,15.53,58.51,4.78,19.39,6.87,39.12,10.25,58.7.87,3.91,1.64,7.85,2.22,11.82.92,6.21-8.31,9.07-9.64,2.66-.77-3.72-1.45-7.46-2.09-11.21-.68-3.09-1.42-6.16-2.21-9.21-2.51,1.35-6.66.28-7.89-2.82-.42-1.06-.82-2.12-1.22-3.19-.36-.51-.63-1.15-.77-1.91-.03-.16-.06-.32-.09-.49-.35-1.01-.68-2.03-1.01-3.05-.13-.24-.26-.47-.39-.71-2.64,2.95-7.33,2.33-8.72-1.71-.03-.09-.06-.17-.08-.26-.08,0-.17,0-.25.01.13,2.09.21,4.19.23,6.29.05,5.02-6.8,6.73-9.32,2.52-1.06-1.78-2.02-3.59-2.89-5.43-1.7,1.26-3.99,1.59-5.67.32-2.39.49-5.01-.49-5.56-3.45-.19-1.01-.36-2.03-.54-3.05-3.65,3.14-8.66,4.39-13.41,5.17-.02.27-.02.54-.04.8-.31,4.88-7.67,6.86-9.48,2.54-.05,1.52-.1,3.03-.16,4.55-.23,5.38-8.9,7.11-9.82,1.33-.33-2.08-.6-4.17-.84-6.26-2.67.07-5.25-.13-7.54-.79,1.53,10.36,3.64,20.59,7.48,30.48,2.34,6.01-7.34,8.59-9.64,2.66-2.89-7.44-4.8-15.07-6.22-22.81-2.19,2.75-7.45,1.21-8.75-2.13-.89-2.29-1.52-4.63-2-7-1.19-.02-2.38-.43-3.29-1.24-.2,3.81-.53,7.62-1.04,11.43,0,0,0,.01,0,.02,0,0,0,0,0,0-.06.44-.11.89-.18,1.33-.85,5.87-9.56,3.96-9.82-1.33-.12-2.45-.19-4.9-.24-7.35-.34.04-.67.06-1.01.03-.3.65-.64,1.28-1.06,1.9-1.02,1.52-2.71,2.31-4.37,2.36-.08.23-.15.47-.23.7-1.45,4.06-6.43,4.69-8.77,1.64-.08.13-.15.27-.23.41-1.46,2.4-4.45,3.03-6.69,1.84-1.75,6.59-3.58,13.15-5.61,19.64-1.91,6.13-11.56,3.5-9.64-2.66.57-1.83,1.12-3.66,1.67-5.5-1.66-.64-3.01-2.17-3.22-4.51-.07-.79-.11-1.57-.14-2.35-.39-.68-.66-1.49-.71-2.46-.04-.86-.06-1.72-.06-2.57-3.4,8.33-6.3,16.85-8.3,25.73-.23,1-.66,1.78-1.23,2.34-2.49,14.97-3.78,30.21-3.78,45.65,0,215.57,249.38,390.33,557.01,390.33s557.01-174.76,557.01-390.33-249.38-390.33-557.01-390.33Z"/>
    <path class="cls-5" d="M713.3,751.51c-21.7-7.46-41.46-13.09-58.58-17.39-14.17-3.56-38.29-9.15-68.03-13.61-17.32-2.6-31.17-4.01-35.57-4.44-11.71-1.16-21.78-1.84-32.17-2.55-8.55-.58-15.67-1-20.69-1.28,1.71,13.76,4.13,31.3,7.51,51.59,0,0,3.74,22.45,8.65,46.49,7,34.34,26.47,110.6,56.55,210.19,53.17-.25,106.33-.5,159.5-.76-21.46-44.46-30.15-84.05-34.02-111.12-4.24-29.71-10.12-74.26,5.67-126.99,3.8-12.68,7.98-22.95,11.2-30.14Z"/>
    <path class="cls-5" d="M352.69,719.2c-30.65,4.69-56.45,10.44-76.54,15.59-24.01,6.16-42.14,12.07-49.32,14.46-12.76,4.24-23.68,8.28-32.32,11.62,2.75,13.97,6.59,32.47,11.62,54.14,6.04,26.02,11.08,44.82,17.01,66.9,13.98,52.03,25.51,89.02,29.2,100.72,3.39,10.77,6.29,19.7,8.31,25.89,52.22-.25,104.44-.5,156.66-.76-5.46-12.47-13-30.8-20.6-53.48-11.46-34.2-16.72-59.43-26.08-104.32-11.01-52.81-13.92-79.18-14.74-86.93-1.89-17.91-2.77-32.99-3.21-43.84Z"/>
    <path class="cls-5" d="M90.11,813.59c-11.72,8.13-23.43,16.25-35.15,24.38,1.98,30.56,5.58,56.33,9.07,76.25,4.64,26.51,9.98,47.95,13.32,61.23,3.3,13.15,6.38,24.25,8.79,32.6,13.89-.47,27.78-.94,41.67-1.42-4.63-13.64-10.2-31.4-15.59-52.44-2.38-9.29-10-39.82-15.87-81.07-2.29-16.09-4.66-36.21-6.24-59.53Z"/>
    <path class="cls-1" d="M1463.96,780.66c-135.21,97.94-270.43,195.87-405.64,293.81"/>
    <path class="cls-1" d="M1889.59,437.53"/>
    <path class="cls-3" d="M937.17,532.77c-23.19,18.87-47.48,40.06-72.28,63.78-24.43,23.36-46.39,46.32-66.05,68.31"/>
  </g>
</svg>