<?xml version="1.0" encoding="UTF-8"?>
<svg id="Layer_1" data-name="Layer 1" xmlns="http://www.w3.org/2000/svg" viewBox="0 0 73.77 78.37">
  <defs>
    <style>
      .cls-1 {
        fill: #000200;
      }

      .cls-1, .cls-2, .cls-3 {
        stroke-width: 0px;
      }

      .cls-2 {
        fill: #000;
      }

      .cls-4 {
        stroke: #000;
      }

      .cls-4, .cls-5 {
        fill: none;
        stroke-miterlimit: 10;
      }

      .cls-3 {
        fill: #000500;
      }

      .cls-5 {
        stroke: #010200;
      }
    </style>
  </defs>
  <path class="cls-4" d="M59.35,29.14c-.66-1.14-1.48-2.4-2.52-3.69-1.75-2.18-3.56-3.79-5.09-4.95"/>
  <path class="cls-5" d="M8.09,25.72h0,0s.07-.08.12-.14c1.23-1.34,5.33-5.64,15.21-11.12,5.81-3.22,10.53-5.13,12.9-6.04,3.34-1.28,6-2.09,8.12-2.73,3.42-1.03,7.27-2.19,12.43-3.11,3.11-.56,6.09-.91,8.57-1.21,1.95-.23,3.59-.4,4.77-.52-2.33.9-5.85,2.64-9.12,5.94-2.79,2.81-4.21,5.56-4.58,6.31-.99,1.99-1.47,3.69-1.8,4.86-.39,1.41-.88,3.18-.99,5.58-.03.6-.07,2.06.17,3.92.11.88.25,1.88.66,3.14.4,1.24.91,2.21,1.31,2.88-1.71,2.59-3.49,4.48-4.86,5.77-2.39,2.24-4.54,3.56-6.13,4.52-1.51.92-3.33,2.01-5.93,2.98-2.75,1.02-5.28,1.5-7.36,1.71-4.22-2.25-7.59-4.45-10.06-6.18-3.79-2.66-5.95-4.59-7.54-6.16-2.49-2.47-3.75-4.24-4.69-6.02-.73-1.38-1.18-2.61-1.46-3.5"/>
  <path class="cls-5" d="M30.78,48.23c-.31,1.94-.41,3.61-.44,4.89-.03,1.66.06,2.88.08,3.18.06.72.18,2.22.59,3.99.43,1.87.97,3.17,1.72,4.91,1.49,3.5,2.93,5.8,3.49,6.67,1.33,2.05,2.05,3.08,3.35,3.83.84.49,1.62.72,2.17.84,2.81-.87,8.17-2.93,13.18-7.83,2.14-2.09,6.19-6.62,8.33-13.63.6-1.97,2.08-6.98,1.14-13.26-.16-1.07-.7-4.2-2.36-7.91-.96-2.14-2.02-3.86-2.9-5.12-.72,1.14-1.74,2.66-3.06,4.37-1.38,1.8-2.84,3.69-5.05,5.7-2.5,2.27-4.69,3.54-6.99,4.87-2.42,1.4-4.42,2.56-7.38,3.44-2.39.71-4.45.95-5.87,1.04Z"/>
  <path class="cls-1" d="M30.78,58.23c-.24-1.54-.41-3.37-.36-5.44.03-1.65.19-3.15.41-4.44,1.54-.11,3.71-.39,6.2-1.15,3.24-.99,5.46-2.3,7.38-3.44,3.6-2.13,5.96-4.24,6.56-4.78,1.91-1.73,3.11-3.19,4.57-4.94,1.31-1.58,2.19-2.81,3.01-4.26.28-.5.5-.93.65-1.23.99,1.87,1.98,3.74,2.97,5.6-1.33,2.06-3.24,4.7-5.85,7.51-.43.47-2.18,2.33-4.74,4.53-1.49,1.28-4.29,3.57-8.16,5.94-2.72,1.67-4.92,2.73-6.21,3.36-2.44,1.17-4.63,2.07-6.44,2.74Z"/>
  <path class="cls-1" d="M35.08,69.7c-.57-.94-1.15-1.99-1.7-3.13-.32-.66-.6-1.31-.86-1.93,1.89-.6,4.43-1.53,7.3-2.97,2.6-1.31,4.38-2.5,6.29-3.78,2.08-1.39,4.93-3.31,8.28-6.35,2.32-2.1,4.1-4.04,5.34-5.48,1.72-2,3.12-3.88,4.25-5.53.21.7.4,1.54.52,2.49.16,1.37.11,2.56,0,3.5-.99,1.89-2.39,4.26-4.33,6.81-.69.9-2.86,3.68-6.29,6.75-3.13,2.81-5.84,4.54-7.36,5.5-2.52,1.6-4.71,2.71-6.24,3.5-1.77.9-3.3,1.61-4.46,2.13"/>
  <path class="cls-1" d="M41.16,76.72c-.6-.47-1.2-.94-1.8-1.41,1.33-.41,3.08-1.03,5.05-1.98,3.1-1.49,5.21-3.05,6.52-4.02,3.01-2.24,5-4.31,5.64-4.99,1.86-1.98,3.11-3.71,3.94-4.87.97-1.36,1.74-2.56,2.3-3.48-.28.93-.75,2.29-1.55,3.85-.88,1.72-1.76,2.9-3.09,4.68-1.25,1.67-1.94,2.59-3.07,3.77-.37.38-2.15,2.23-4.96,4.16-2.4,1.65-4.42,2.57-5.12,2.88-1.48.66-2.81,1.1-3.86,1.41Z"/>
  <path class="cls-2" d="M22.71,43.93c-.91,5.95-.37,10.78.22,13.86.54,2.82,1.22,6.21,3.49,10.03,2.89,4.85,6.52,7.33,7.25,7.82,1.06.71,2.01,1.21,2.7,1.54-.97.24-2.16.45-3.55.52-1.4.07-2.63-.02-3.62-.16-3.2-2.49-7.75-6.79-11.05-13.39-3.74-7.48-4.07-14.31-4.23-18.32-.14-3.75.15-6.89.47-9.13,1.35,1.47,2.96,3.04,4.84,4.6,1.19.99,2.35,1.86,3.47,2.63Z"/>
  <path class="cls-1" d="M19.62,74.76c-2.92-2.39-6.7-6.15-9.74-11.62-.43-.78-4.92-9.05-5.05-19.61-.07-5.9,1.25-9.49,1.7-10.64.61-1.55,1.28-2.77,1.8-3.62-.32-.89-.64-1.78-.96-2.67-1.09,1.47-2.35,3.4-3.53,5.8-.49,1-1.23,2.54-1.88,4.66-.28.9-1.02,3.46-1.23,6.88-.31,5,.69,8.98,1.31,10.98,1.48,4.8,3.73,7.98,5.07,9.83,1.99,2.75,3.79,4.43,5.3,5.84,1.71,1.6,2.93,2.48,4.42,3.19,1.11.52,2.09.81,2.8.98Z"/>
  <path class="cls-1" d="M55.75,33.21c-.51-1.03-1.16-2.56-1.6-4.51-.95-4.26-.24-7.73.18-9.66.77-3.57,2.11-6.05,2.56-6.84,1.51-2.67,3.18-4.39,4-5.24,1.36-1.38,2.56-2.3,3.4-2.95,1.79-1.36,3.03-2.03,3.47-2.26.47-.25.87-.43,1.16-.56-1.3.21-3.29.69-5.43,1.91-1.99,1.14-3.21,2.41-4.39,3.63-.59.61-2.15,2.29-3.88,5.07-1.77,2.84-2.66,5.16-3.72,7.98-.72,1.89-2.08,5.73-2.93,10.52-.16.91-.49,2.78-.35,5.22.11,1.96.25,4.28,1.19,4.63.85.31,2.58-.9,6.32-6.94Z"/>
  <path class="cls-2" d="M40.07,45.54c-1-5.97-.38-10.78.23-13.68,1.13-5.45,3.25-9.28,5-12.45,1.15-2.09,2.61-4.68,5.19-7.62,2.48-2.82,4.82-4.59,6.29-5.69,1.68-1.26,2.99-2.23,4.97-3.15,2.34-1.07,4.44-1.53,5.88-1.74-2.69.46-6.04,1.28-9.71,2.78-4.77,1.96-8.1,4.32-10.15,5.78-1.83,1.31-4.45,3.2-7.35,6.27-2.78,2.94-4.43,5.48-6.02,7.95-2.63,4.07-4.25,7.51-4.99,9.19-1.04,2.34-1.77,4.36-2.27,5.74-.81,2.25-1.43,4.2-1.88,5.71,1.88,1.13,3.76,2.27,5.63,3.4,1.69-.15,3.38-.29,5.07-.44,1.37-.68,2.74-1.37,4.11-2.05Z"/>
  <path class="cls-4" d="M30.68,48.63c-4.98-2.63-8.84-5.33-11.6-7.48,0,0-5.11-3.98-8.95-8.95-1.06-1.36-1.74-2.83-1.74-2.83-.21-.44-.35-.81-.38-.89-.3-.79-.47-1.48-.57-1.99-.53.62-1.24,1.51-1.98,2.65-1.77,2.7-2.59,5.06-3.13,6.6-1.32,3.77-1.63,6.85-1.7,7.63-.18,2.03-.3,5.61.73,9.9.33,1.36,1.29,4.96,3.76,9.04,2.32,3.82,4.87,6.26,5.98,7.26,3.59,3.22,7.01,4.81,8.18,5.33,2.63,1.15,4.75,1.62,6.81,2.08,2.26.5,4.37.96,7.16.89,1.54-.04,3.64-.44,4.85-.64,1.09-.18,1.99-.34,2.61-.47-2.38-1.85-3.93-3.75-4.89-5.12-1.95-2.77-2.8-5.26-3.52-7.35-.58-1.7-1.3-3.81-1.6-6.67-.22-2.14-.17-4.24-.11-6.5.03-1.04.07-1.9.1-2.5Z"/>
  <path class="cls-3" d="M18.81,39.93c1.79-4.38,4.47-9.59,8.51-14.9,3.63-4.78,7.19-8.09,9.35-9.95,3.84-3.3,7.29-5.48,9.35-6.69,2.02-1.18,5.33-3.1,10.06-4.74,2.89-1,5.43-1.59,7.35-1.95-3.65.68-8.35,1.75-13.68,3.52-3.47,1.15-8.55,2.85-14.62,6.13-6.27,3.38-10.33,6.69-14.79,10.32-3.26,2.65-5.77,5-8.23,7.94-.75.89-1.34,1.66-1.73,2.19.84,1.32,2.07,2.96,3.79,4.61,1.68,1.6,3.32,2.74,4.65,3.52Z"/>
  <line class="cls-5" x1="8.27" y1="25.5" x2="7.48" y2="26.46"/>
  <line class="cls-5" x1="7.7" y1="26" x2="7.85" y2="26.75"/>
</svg>