<?xml version="1.0" encoding="UTF-8"?>
<svg xmlns="http://www.w3.org/2000/svg" version="1.1" viewBox="0 0 1920 1080">
  <defs>
    <style>
      .cls-1 {
        stroke: #ed1c24;
      }

      .cls-1, .cls-2, .cls-3, .cls-4, .cls-5 {
        fill: none;
      }

      .cls-1, .cls-2, .cls-4, .cls-5 {
        stroke-miterlimit: 10;
      }

      .cls-2, .cls-5 {
        stroke: #efd5bf;
      }

      .cls-3, .cls-6, .cls-7, .cls-8, .cls-9, .cls-10 {
        stroke-width: 0px;
      }

      .cls-6 {
        fill: #f2cca7;
      }

      .cls-4 {
        stroke: #efd8c5;
        stroke-width: 2px;
      }

      .cls-7 {
        fill: lime;
      }

      .cls-8 {
        fill: #ed1c24;
      }

      .cls-5 {
        stroke-width: 8px;
      }

      .cls-9 {
        fill: #efd8c5;
      }

      .cls-11 {
        display: none;
      }

      .cls-10 {
        fill: #efd5bf;
      }
    </style>
  </defs>
  <g id="Layer_1" data-name="Layer 1">
    <rect class="cls-6" x="-12.55" y="-17.74" width="1949.35" height="1114.29"/>
  </g>
  <g id="vball_bg" data-name="vball bg" class="cls-11">
    <path class="cls-9" d="M51.09,196.75c1.93,0,1.93-3,0-3s-1.93,3,0,3h0Z"/>
    <path class="cls-9" d="M95.25,170.77c1.93,0,1.93-3,0-3s-1.93,3,0,3h0Z"/>
    <path class="cls-9" d="M117.32,120.12c1.93,0,1.93-3,0-3s-1.93,3,0,3h0Z"/>
    <circle class="cls-4" cx="1644.12" cy="1014.98" r="617.53"/>
    <g>
      <path class="cls-1" d="M1772.01,1546.74c27.71-8.68,58.69-20.44,91.39-36.55,55.27-27.23,98.58-58.56,130.8-85.98"/>
      <path class="cls-1" d="M2090.69,459.91h0,0c.55.78,1.36,1.94,2.34,3.34,23.01,32.94,95.92,141.56,166.57,380.51,41.49,140.33,60.16,251.06,68.39,306.45,11.58,77.91,16.33,139.02,19.96,187.71,5.86,78.57,12.45,166.98,7.59,282.41-2.93,69.66-9.46,135.47-14.89,190.12-4.27,43.04-8.46,79.1-11.65,105.15-8.33-54.47-28.84-138.5-84.14-224.6-47.19-73.47-99.57-117.09-113.93-128.7-38.12-30.8-72.41-49.37-96.02-62-28.44-15.22-64.3-34.14-115.37-48.06-12.72-3.47-44.01-11.43-85.08-15.14-19.56-1.77-41.69-3.57-70.78-.72-28.55,2.8-51.88,8.95-68.31,14.3-47.58-49.21-79.81-96.49-100.91-132.18-36.79-62.22-54.89-114.79-68.03-153.58-12.51-36.9-27.33-81.36-35.7-141.8-8.88-64.05-7.02-120.83-1.69-166.56,68.67-79.97,131.92-142,181.09-186.88,75.34-68.79,127.25-106.15,168.71-132.8,65.05-41.82,109.27-60.45,151.89-72.12,33.13-9.07,61.76-12.96,82.32-14.79"/>
      <path class="cls-1" d="M1497.75,840.73c-40.31-15.92-75.66-26.11-103.11-32.8-35.46-8.64-62.28-12.53-68.86-13.45-15.7-2.22-48.66-6.75-88.69-6.48-42.37.28-72.87,5.81-113.92,13.47-82.55,15.39-138.75,35.31-160.19,43.27-50.42,18.73-76.11,29.49-98.54,53.73-14.5,15.67-23.28,31.49-28.51,42.73,5.22,64.69,24.08,189.88,105.45,321.03,34.75,56.01,112.82,164.88,253.59,244.42,39.6,22.37,140.38,78.13,279.89,87.83,23.77,1.65,93.61,5.09,181.42-12.99,50.75-10.45,92.7-25.04,124.14-37.98-21.11-20.99-48.94-50.13-79.52-86.72-32.03-38.31-65.89-78.82-98.55-135.83-36.99-64.56-53.86-117.8-71.52-173.65-18.58-58.78-33.96-107.43-38.71-175.21-3.84-54.74.78-100.3,5.64-131.35Z"/>
      <path class="cls-8" d="M1282.53,792.98c34.19,2.23,74.48,7.39,118.79,18.18,35.44,8.63,66.76,19.22,93.58,29.96-4.97,33.59-9.3,81.65-4.88,139,5.74,74.36,23.42,128.46,38.71,175.21,28.69,87.73,62.67,148.5,71.56,164.07,28.18,49.4,53.65,82.26,84.53,122.09,27.69,35.71,49.99,60.64,77.32,85.24,9.42,8.48,17.55,15.22,23.32,19.87-44.94,12.4-89.88,24.8-134.81,37.2-37.94-38.49-85.73-92.16-133.73-161.76-7.99-11.58-39.67-57.97-74.84-123.69-20.49-38.29-56.26-109.48-88.78-203.97-22.93-66.61-35.32-118.85-42.55-149.73-13.61-58.12-22.38-109.57-28.21-151.66Z"/>
      <path class="cls-7" d="M1328.12,892.08"/>
      <path class="cls-8" d="M1015.26,830.57c22.98-7.8,48.21-15.19,75.55-21.56,15.75-3.67,30.97-6.7,45.59-9.22,3.82,43.58,11.68,102.71,29.09,171.21,15.81,62.19,32.95,106.32,51.21,153.34,19.93,51.33,47.67,121.95,97.04,208.54,34.2,60,67.37,107.65,92.38,141.16,34.77,46.59,68.66,85.8,98.71,117.84-16.09,1.15-35.03,1.32-56.08-.8-30.22-3.04-55.71-9.86-75.39-16.74-35.97-30.24-80.34-71.72-125.87-125.77-16.15-19.17-65.54-79.21-115.22-167.59-45.41-80.79-69.75-147.32-83.25-184.74-22.32-61.87-35.92-114.27-45.44-150.94-10.99-42.34-18.99-78.65-24.6-106.15"/>
      <path class="cls-8" d="M835.1,927.94c13-10.69,26-21.38,39-32.06,2.44,30.54,7.45,71.23,18.44,118.25,17.22,73.73,40.65,126.73,55.37,159.59,33.81,75.45,68.88,128.16,80.53,145.24,33.71,49.43,65,84.65,85.89,107.99,24.56,27.44,46.7,49.65,63.86,66.09-18.61-10.43-45.75-27.16-75.47-51.75-32.8-27.13-54.07-51.68-85.97-88.84-29.99-34.93-46.51-54.18-66.5-84.12-6.52-9.76-37.68-57-65.7-126.66-23.94-59.49-34.19-107.5-37.5-123.94-7.06-35.04-10.35-65.69-11.93-89.8Z"/>
      <path class="cls-8" d="M1628.9,687.58c-123.77-48.1-230.24-59.47-299.32-61.51-63.26-1.87-139.38-3.44-232.49,27.26-118.26,38.98-189.01,105.31-202.85,118.59-20.32,19.5-35.59,37.55-45.98,50.8-.48-21.91.66-48.72,5.76-78.83,5.16-30.46,13.05-56.4,20.82-77.07,68.92-56.92,183.25-134.38,340.96-173.88,178.82-44.79,327.45-19.25,414.36-3.39,81.35,14.84,147.54,36.25,194.21,53.82-38.12,22.08-79.54,49.12-122.25,82.21-26.95,20.88-51.31,41.75-73.22,62.02Z"/>
      <path class="cls-8" d="M980.1,473.72c65.5-51.41,164.47-114.7,296.58-154,18.78-5.59,218.24-62.58,446.25-14.93,127.26,26.59,198.22,72.16,220.81,87.47,30.37,20.59,53.5,40.89,69.22,55.92,20.67-2.67,41.34-5.34,62.01-8.02-26.37-30.41-61.95-66.94-108-103.66-19.22-15.32-48.78-38.7-91.18-62.8-18.13-10.31-69.7-38.43-142.29-59.28-106.13-30.48-196.57-27.99-242.59-24.34-110.45,8.77-189.64,42.15-235.7,62.03-68.78,29.68-113.57,60.42-150.93,86.06-42.55,29.2-67.43,51.09-89.72,79.96-16.48,21.34-27.44,41.19-34.45,55.6Z"/>
      <path class="cls-8" d="M1701.62,1449.9c24.5-6.05,60.66-12.78,104.63-12.83,96.22-.1,167.42,31.86,207.02,50.14,73.07,33.73,120.05,74.42,134.92,87.8,50.28,45.23,79.39,89.36,93.58,111.19,23.28,35.81,37.32,66.04,47.11,87.32,20.68,44.95,29.14,74.79,32.05,85.56,3.04,11.27,5.17,20.8,6.57,27.56,1.66-28.9.85-74.13-15.23-125.94-14.96-48.21-36.49-80.62-57.21-111.84-10.32-15.55-39.08-57.32-90.54-107.67-52.75-51.6-98.26-81.8-153.83-118.24-37.28-24.44-113.42-72.06-212.32-113.27-18.83-7.85-57.54-23.94-110.56-32.52-42.67-6.9-93.28-15.08-105.27,3.53-10.82,16.79,7.01,59.72,119.06,169.2Z"/>
      <path class="cls-8" d="M1511.32,1053.58c133.33,7.05,233.78,43.45,293.39,70.32,111.8,50.4,184.12,114.22,244.05,167.1,39.49,34.85,88.32,78.46,139.09,148.2,48.72,66.94,75.69,125.61,92.47,162.63,19.14,42.23,33.78,75.04,43.91,122.09,11.93,55.39,11.63,102.76,9.3,134.75,3-60.17,1.41-136.13-13.48-222.24-19.37-112.09-54.15-195-75.81-245.95-19.39-45.61-47.59-111.02-99.84-188.27-49.98-73.89-96.83-121.44-142.3-167.59-74.91-76.04-141.3-127.31-173.86-151.41-45.46-33.64-85.35-58.95-112.65-76.26-44.46-28.21-83.47-50.82-113.93-67.77-33.38,34.99-66.76,69.97-100.14,104.96-4.91,37.07-9.82,74.13-14.73,111.2,8.17,32.74,16.35,65.48,24.52,98.22Z"/>
      <path class="cls-1" d="M1489.73,836.76c80.33-94.56,156.88-164.71,216.52-213.95,0,0,110.07-90.89,235.32-149.88,34.38-16.19,69.14-23.99,69.14-23.99,10.37-2.33,19.05-3.62,20.96-3.89,18.4-2.69,34.06-3.08,45.54-2.84-10.86-14.41-26.63-33.95-47.46-55.35-49.69-51.05-96.43-79.84-127.14-98.87-74.91-46.42-139.67-67.81-156.1-73.06-42.71-13.64-119.18-33.31-216.56-31.68-30.76.52-112.88,3.99-212.49,37.73-93.4,31.64-158.02,74.94-184.76,94.04-86.46,61.76-137.04,127.78-153.72,150.59-37.32,51.02-57.69,94.54-77.34,136.5-21.64,46.22-41.5,89.37-53.36,149.93-6.52,33.31-7.91,80.52-9.47,107.38-1.42,24.34-2.11,44.55-2.48,58.46,51.23-42.29,99.59-66.67,133.48-80.79,68.93-28.72,126.55-35.22,175.05-40.7,39.4-4.45,88.19-9.67,151.16-2.45,47.1,5.4,92.08,16.61,140.46,28.67,22.2,5.53,40.54,10.56,53.25,14.15Z"/>
      <path class="cls-8" d="M1733.69,622.7c85.72,59.55,185.05,142.11,279.94,254.27,85.52,101.08,139.72,193.45,169.38,248.83,52.7,98.4,83.07,183.02,99.2,233.13,15.77,49.02,41.21,129.5,53.86,239.06,7.74,67.08,8.31,124.51,6.9,167.6,2.87-81.88,2.19-188.02-10.28-311.17-8.11-80.12-20.55-197.67-62.03-344.01-42.82-151.07-94.68-254.27-151.45-367.72-41.45-82.84-79.99-148-131.57-215.02-15.67-20.36-29.32-36.71-38.78-47.75-32.45,11.84-73.61,30.31-117.29,59.45-42.54,28.39-74.76,58.44-97.9,83.33Z"/>
      <line class="cls-1" x1="2094.61" y1="465.01" x2="2077.7" y2="443.3"/>
      <line class="cls-1" x1="2086.6" y1="450.39" x2="2069.63" y2="449.81"/>
    </g>
  </g>
  <g id="vball_shape" data-name="vball shape">
    <ellipse class="cls-5" cx="1534.3" cy="879" rx="696.19" ry="689.39"/>
  </g>
  <g id="stripe_1" data-name="stripe 1">
    <path class="cls-10" d="M961.56,486.95c46.3-36.12,104.47-74.68,175.04-108.54,94.8-45.49,174.47-64.5,206.65-71.43,38.63-8.33,108.99-20.86,198.14-20.41,12.15.06,135.08,1.36,244.91,34.87,59.57,18.17,111.4,44.22,111.4,44.22,11.47,5.77,20.83,10.88,27.21,14.46.06-23.8.13-47.59.19-71.39-39.87-26.32-77.05-45.31-108.05-59.01-54.09-23.91-98.17-35.59-114.52-39.69-25.44-6.37-62.87-14.2-108.85-18.14-46.47-3.98-119.66-5.53-206.93,13.32-13.39,2.89-30.99,7.1-51.45,13.18-91.03,27.04-156.11,66.48-186.9,86.81,0,0-75.47,49.83-141.21,123.54-12.18,13.65-22.87,27.21-22.87,27.21-9.56,12.12-17.18,22.81-22.77,30.99Z"/>
  </g>
  <g id="stripe_2" data-name="stripe 2">
    <path class="cls-10" d="M839.58,834.76c3.79-5.35,9.24-12.79,16.16-21.35,7.28-9.01,39.67-48.36,96.38-88.06,10.08-7.05,43.07-29.62,90.71-51.02,20.91-9.39,58.68-24.87,108.09-36.28,67.21-15.53,120.01-15.24,162.14-14.74,72.73.86,128.3,11.23,150.8,15.87,43.86,9.04,82.16,21.05,105.45,28.35,24.52,7.68,45,14.88,60.09,20.41,26.87-25.33,58.51-52.39,95.24-79.37,35.09-25.78,68.83-47.07,99.78-64.63-42.32-16.14-90.51-31.56-144.19-44.03-35.39-8.22-62.76-12.69-82.39-15.87-38.98-6.32-88.4-14.16-151.94-15.87-46.8-1.26-82.68,1.31-94.87,2.27-113.75,8.98-197.35,38.67-220.72,47.34-51.86,19.23-89.46,39.53-116.79,54.43-57.94,31.58-95.35,59.31-105.45,66.9-15.48,11.63-28.07,22-37.13,29.72-5.72,18.3-10.04,34.68-13.32,48.47-1.06,4.45-5.84,24.71-10.35,51.73-1.38,8.27-3.24,19.5-4.96,34.58-1.4,12.25-2.23,22.85-2.74,31.18Z"/>
  </g>
  <g id="stripe_3" data-name="stripe 3">
    <path class="cls-10" d="M1948.39,478.16c-31.22,12.99-57.69,25.84-78.8,36.85-48.48,25.29-83.99,48.88-100.35,60.09-21.18,14.52-38.6,27.73-51.59,37.98,19.56,12.12,44.35,28.47,72,49.32,36.1,27.23,61.76,50.6,83.91,70.87,18.02,16.49,40.12,37.55,64.63,62.93,3.4-106.02,6.8-212.03,10.2-318.05Z"/>
  </g>
  <g id="stripe_4" data-name="stripe 4">
    <path class="cls-10" d="M1586.13,731.39c12.28,6.52,29.66,15.91,50.27,27.59,40.28,22.83,100.54,57.2,170.08,107.72,32.28,23.45,73.41,55.35,119.06,96.38.38,41.2.76,82.39,1.13,123.59h-232.44c-32.11-12.34-60.31-18.94-81.64-22.68-34.13-5.98-61.37-6.52-79.37-6.8-18.86-.3-34.77.37-46.49,1.13-19.28-38.55-38.55-77.1-57.83-115.65,11.89-29.98,30.01-67.35,57.83-106.58,34.09-48.07,70.8-82.07,99.4-104.69Z"/>
  </g>
  <g id="line_1" data-name="line 1">
    <path class="cls-3" d="M839.46,914.67c10.54-8.67,21.54-15.67,32.54-24.67,8-5,15-9,23-15,3-2,5-2,8-4,47-30,94-50,149-60,75-14,145-26,219-22,79,3,156,23,228.76,52.56"/>
    <path class="cls-3" d="M1413.02,988.9c-37.37-4.8-74.74-9.61-112.11-14.41-37.37-4.8-74.74-9.61-112.11-14.41-37.26-4.79-74.51-9.58-111.77-14.37-37.26-4.79-74.51-9.58-111.77-14.37-37.26-4.79-74.51-9.58-111.77-14.37-4.63-.59-9.26-1.19-13.88-1.78"/>
    <path class="cls-5" d="M1249.75,788.08c-162.46,0-308.66,48.75-410.47,126.51,0,.12.01.24,0,.37v.31c0,.4-.05.78-.14,1.15.02.15.03.29.04.44,1.04.07,2.09.52,3.03,1.49,3.85,3.96,6.48,8.67,7.52,14.11.51,2.66-.71,5.39-3.49,6.15-.87.24-1.84.2-2.75-.07.43,2.85.77,5.72,1.12,8.57.76,6.32,1.57,11.25,2.94,18.76,1.46,8.02,2.8,16.06,3.34,24.18.11.15.23.29.33.46,10.37,17.89,10.69,38.89,15.53,58.51,4.78,19.39,6.87,39.12,10.25,58.7.87,3.91,1.64,7.85,2.22,11.82.92,6.21-8.31,9.07-9.64,2.66-.77-3.72-1.45-7.46-2.09-11.21-.68-3.09-1.42-6.16-2.21-9.21-2.51,1.35-6.66.28-7.89-2.82-.42-1.06-.82-2.12-1.22-3.19-.36-.51-.63-1.15-.77-1.91-.03-.16-.06-.32-.09-.49-.35-1.01-.68-2.03-1.01-3.05-.13-.24-.26-.47-.39-.71-2.64,2.95-7.33,2.33-8.72-1.71-.03-.09-.06-.17-.08-.26-.08,0-.17,0-.25.01.13,2.09.21,4.19.23,6.29.05,5.02-6.8,6.73-9.32,2.52-1.06-1.78-2.02-3.59-2.89-5.43-1.7,1.26-3.99,1.59-5.67.32-2.39.49-5.01-.49-5.56-3.45-.19-1.01-.36-2.03-.54-3.05-3.65,3.14-8.66,4.39-13.41,5.17-.02.27-.02.54-.04.8-.31,4.88-7.67,6.86-9.48,2.54-.05,1.52-.1,3.03-.16,4.55-.23,5.38-8.9,7.11-9.82,1.33-.33-2.08-.6-4.17-.84-6.26-2.67.07-5.25-.13-7.54-.79,1.53,10.36,3.64,20.59,7.48,30.48,2.34,6.01-7.34,8.59-9.64,2.66-2.89-7.44-4.8-15.07-6.22-22.81-2.19,2.75-7.45,1.21-8.75-2.13-.89-2.29-1.52-4.63-2-7-1.19-.02-2.38-.43-3.29-1.24-.2,3.81-.53,7.62-1.04,11.43,0,0,0,.01,0,.02,0,0,0,0,0,0-.06.44-.11.89-.18,1.33-.85,5.87-9.56,3.96-9.82-1.33-.12-2.45-.19-4.9-.24-7.35-.34.04-.67.06-1.01.03-.3.65-.64,1.28-1.06,1.9-1.02,1.52-2.71,2.31-4.37,2.36-.08.23-.15.47-.23.7-1.45,4.06-6.43,4.69-8.77,1.64-.08.13-.15.27-.23.41-1.46,2.4-4.45,3.03-6.69,1.84-1.75,6.59-3.58,13.15-5.61,19.64-1.91,6.13-11.56,3.5-9.64-2.66.57-1.83,1.12-3.66,1.67-5.5-1.66-.64-3.01-2.17-3.22-4.51-.07-.79-.11-1.57-.14-2.35-.39-.68-.66-1.49-.71-2.46-.04-.86-.06-1.72-.06-2.57-3.4,8.33-6.3,16.85-8.3,25.73-.23,1-.66,1.78-1.23,2.34-2.49,14.97-3.78,30.21-3.78,45.65,0,215.57,249.38,390.33,557.01,390.33s557.01-174.76,557.01-390.33-249.38-390.33-557.01-390.33Z"/>
  </g>
  <g id="stripe_5" data-name="stripe 5">
    <path class="cls-10" d="M1497.12,827.91c-21.7-7.46-41.46-13.09-58.58-17.39-14.17-3.56-38.29-9.15-68.03-13.61-17.32-2.6-31.17-4.01-35.57-4.44-11.71-1.16-21.78-1.84-32.17-2.55-8.55-.58-15.67-1-20.69-1.28,1.71,13.76,4.13,31.3,7.51,51.59,0,0,3.74,22.45,8.65,46.49,7,34.34,26.47,110.6,56.55,210.19,53.17-.25,106.33-.5,159.5-.76-21.46-44.46-30.15-84.05-34.02-111.12-4.24-29.71-10.12-74.26,5.67-126.99,3.8-12.68,7.98-22.95,11.2-30.14Z"/>
  </g>
  <g id="strip_6" data-name="strip 6">
    <path class="cls-10" d="M1136.5,795.59c-30.65,4.69-56.45,10.44-76.54,15.59-24.01,6.16-42.14,12.07-49.32,14.46-12.76,4.24-23.68,8.28-32.32,11.62,2.75,13.97,6.59,32.47,11.62,54.14,6.04,26.02,11.08,44.82,17.01,66.9,13.98,52.03,25.51,89.02,29.2,100.72,3.39,10.77,6.29,19.7,8.31,25.89,52.22-.25,104.44-.5,156.66-.76-5.46-12.47-13-30.8-20.6-53.48-11.46-34.2-16.72-59.43-26.08-104.32-11.01-52.81-13.92-79.18-14.74-86.93-1.89-17.91-2.77-32.99-3.21-43.84Z"/>
  </g>
  <g id="stripe_7" data-name="stripe 7">
    <path class="cls-10" d="M873.92,889.99c-11.72,8.13-23.43,16.25-35.15,24.38,1.98,30.56,5.58,56.33,9.07,76.25,4.64,26.51,9.98,47.95,13.32,61.23,3.3,13.15,6.38,24.25,8.79,32.6,13.89-.47,27.78-.94,41.67-1.42-4.63-13.64-10.2-31.4-15.59-52.44-2.38-9.29-10-39.82-15.87-81.07-2.29-16.09-4.66-36.21-6.24-59.53Z"/>
    <path class="cls-2" d="M2247.78,857.06c-135.21,97.94-270.43,195.87-405.64,293.81"/>
    <path class="cls-2" d="M2673.4,513.92"/>
  </g>
  <g id="line_2" data-name="line 2">
    <path class="cls-5" d="M1720.98,609.17c-23.19,18.87-47.48,40.06-72.28,63.78-24.43,23.36-46.39,46.32-66.05,68.31"/>
  </g>
</svg>